<svg width="56" height="56" viewBox="0 0 56 56" fill="none" xmlns="http://www.w3.org/2000/svg">
<path fill-rule="evenodd" clip-rule="evenodd" d="M1.83109 9.17296C0 12.7667 0 17.4711 0 26.88V29.12C0 38.5289 0 43.2333 1.83109 46.827C3.44176 49.9882 6.01184 52.5582 9.17296 54.1689C12.7667 56 17.4711 56 26.88 56H29.12C38.5289 56 43.2333 56 46.827 54.1689C49.9882 52.5582 52.5582 49.9882 54.1689 46.827C56 43.2333 56 38.5289 56 29.12V26.88C56 17.4711 56 12.7667 54.1689 9.17296C52.5582 6.01184 49.9882 3.44176 46.827 1.83109C43.2333 0 38.5289 0 29.12 0H26.88C17.4711 0 12.7667 0 9.17296 1.83109C6.01184 3.44176 3.44176 6.01184 1.83109 9.17296ZM37.14 39.5828C35.828 39.5828 34.836 39.2948 34.164 38.7188C33.492 38.1428 33.156 37.2468 33.156 36.0308C33.156 34.7828 33.492 33.8708 34.164 33.2948C34.836 32.7188 35.828 32.4308 37.14 32.4308C38.516 32.4308 39.54 32.7188 40.212 33.2948C40.916 33.8708 41.268 34.7828 41.268 36.0308C41.268 38.3988 39.892 39.5828 37.14 39.5828Z" fill="white"/>
<path fill-rule="evenodd" clip-rule="evenodd" d="M50.4 28C50.4 15.6288 42.9147 5.60002 27.9442 5.60002C12.9736 5.60002 12.9736 47.25 27.9442 47.25C42.9147 47.25 50.4 40.3712 50.4 28ZM37.14 39.5828C35.828 39.5828 34.836 39.2948 34.164 38.7188C33.492 38.1428 33.156 37.2468 33.156 36.0308C33.156 34.7828 33.492 33.8708 34.164 33.2948C34.836 32.7188 35.828 32.4308 37.14 32.4308C38.516 32.4308 39.54 32.7188 40.212 33.2948C40.916 33.8708 41.268 34.7828 41.268 36.0308C41.268 38.3988 39.892 39.5828 37.14 39.5828Z" fill="#FFE4D4"/>
<path d="M14.0796 45.0502C12.618 44.4463 11.4569 43.288 10.8515 41.8301L6.05406 30.2771C5.44866 28.8191 5.44866 27.1809 6.05406 25.7229L10.8515 14.1699C11.4569 12.712 12.618 11.5537 14.0796 10.9498L14.1123 10.9363C14.5744 10.7454 15.0826 11.0841 15.0826 11.583V22.5036C15.0826 23.1308 15.0377 23.9671 14.9479 25.0124C14.888 26.0279 14.7832 27.118 14.6335 28.2828C14.5137 29.4476 14.379 30.5676 14.2293 31.6428C14.1095 32.6881 14.0047 33.5692 13.9149 34.286H14.3191C14.5886 31.8071 15.0527 29.7911 15.7114 28.238C16.3701 26.6551 17.2683 25.5052 18.4061 24.7884C19.5438 24.0417 20.9211 23.6684 22.5379 23.6684C24.9143 23.6684 26.7164 24.4626 27.9442 26.0511C30.1559 28.9127 30.0494 31.4489 30.0494 35.0622C30.0494 36.6925 30.3304 38.6346 31.4039 40.2415L31.5105 40.396C32.8079 42.223 34.5882 42.7 36.0314 42.7C36.7142 42.7 37.4628 42.5897 38.1976 42.2858V47.9333C37.1305 48.4805 36.0138 48.9451 34.856 49.3185C33.3161 49.815 31.7035 50.1501 30.0382 50.3038C29.8673 50.3196 29.6959 50.3335 29.524 50.3454C29.5154 50.346 29.5068 50.3466 29.4982 50.3472C29.4036 50.3536 29.3088 50.3595 29.2139 50.3648C28.7937 50.3882 28.3703 50.4 27.9442 50.4C27.6812 50.4 27.4194 50.3955 27.1586 50.3865C24.5568 50.2973 22.7625 47.9662 22.7625 45.3693V34.8684C22.7625 33.1959 22.5379 31.9713 22.0888 31.1948C21.6397 30.4183 20.9061 30.03 19.8881 30.03C18.9899 30.03 18.1815 30.3735 17.4629 31.0604C16.7443 31.7175 16.1605 32.7777 15.7114 34.2412C15.2922 35.7047 15.0826 37.6012 15.0826 39.9308V44.417C15.0826 44.9159 14.5744 45.2546 14.1123 45.0637L14.0796 45.0502Z" fill="#242423"/>
<path d="M34.164 38.7188C34.836 39.2948 35.828 39.5828 37.14 39.5828C39.892 39.5828 41.268 38.3988 41.268 36.0308C41.268 34.7828 40.916 33.8708 40.212 33.2948C39.54 32.7188 38.516 32.4308 37.14 32.4308C35.828 32.4308 34.836 32.7188 34.164 33.2948C33.492 33.8708 33.156 34.7828 33.156 36.0308C33.156 37.2468 33.492 38.1428 34.164 38.7188Z" fill="#F28564"/>
</svg>
