<svg width="402" height="56" viewBox="0 0 402 56" fill="none" xmlns="http://www.w3.org/2000/svg">
<g clip-path="url(#clip0_31_24)">
<path fill-rule="evenodd" clip-rule="evenodd" d="M43.664 38.219C42.1646 38.219 41.0309 37.8899 40.2629 37.2316C39.4949 36.5733 39.1109 35.5493 39.1109 34.1596C39.1109 32.7333 39.4949 31.691 40.2629 31.0327C41.0309 30.3745 42.1646 30.0453 43.664 30.0453C45.2366 30.0453 46.4069 30.3745 47.1749 31.0327C47.9794 31.691 48.3817 32.7333 48.3817 34.1596C48.3817 36.8659 46.8091 38.219 43.664 38.219Z" fill="white"/>
<path d="M17.3092 44.4675C15.6389 43.7773 14.3118 42.4536 13.62 40.7874L8.13718 27.5839C7.4453 25.9177 7.4453 24.0454 8.13718 22.3792L13.62 9.17571C14.3118 7.50955 15.6389 6.18579 17.3092 5.49563L17.3466 5.48018C17.8747 5.26199 18.4555 5.64914 18.4555 6.21928V18.7C18.4555 19.4168 18.4042 20.3725 18.3015 21.5672C18.2331 22.7277 18.1133 23.9736 17.9422 25.3048C17.8054 26.636 17.6514 27.916 17.4803 29.1448C17.3434 30.3394 17.2237 31.3464 17.121 32.1656H17.5829C17.8909 29.3325 18.4213 27.0285 19.1741 25.2536C19.9269 23.4445 20.9535 22.1304 22.2538 21.3112C23.5541 20.4578 25.1281 20.0312 26.9759 20.0312C29.6918 20.0312 31.7513 20.9389 33.1545 22.7543C35.6822 26.0247 35.5604 28.9231 35.5604 33.0527C35.5605 34.9159 35.8816 37.1354 37.1084 38.9718L37.2302 39.1484C38.713 41.2365 40.7476 41.7816 42.397 41.7816C43.1774 41.7816 44.0329 41.6555 44.8727 41.3081V47.7624C43.6531 48.3879 42.3769 48.9188 41.0536 49.3455C39.2938 49.913 37.4509 50.296 35.5476 50.4717C35.3524 50.4897 35.1565 50.5056 34.96 50.5192C34.9501 50.5199 34.9403 50.5205 34.9305 50.5212C34.8224 50.5286 34.7141 50.5353 34.6056 50.5413C34.1253 50.568 33.6415 50.5816 33.1545 50.5816C32.854 50.5816 32.5547 50.5764 32.2567 50.5662C29.2832 50.4642 27.2325 47.8001 27.2325 44.8322V32.8312C27.2325 30.9197 26.9759 29.5202 26.4626 28.6328C25.9493 27.7453 25.111 27.3016 23.9476 27.3016C22.921 27.3016 21.9971 27.6941 21.1759 28.4792C20.3546 29.2301 19.6874 30.4418 19.1741 32.1144C18.695 33.7869 18.4555 35.9544 18.4555 38.6168V43.7439C18.4555 44.314 17.8747 44.7012 17.3466 44.483L17.3092 44.4675Z" fill="white"/>
<path d="M40.2629 37.2316C41.0309 37.8899 42.1646 38.219 43.664 38.219C46.8091 38.219 48.3817 36.8659 48.3817 34.1596C48.3817 32.7333 47.9794 31.691 47.1749 31.0327C46.4069 30.3745 45.2366 30.0453 43.664 30.0453C42.1646 30.0453 41.0309 30.3745 40.2629 31.0327C39.4949 31.691 39.1109 32.7333 39.1109 34.1596C39.1109 35.5493 39.4949 36.5733 40.2629 37.2316Z" fill="#F28564"/>
<path d="M68 41.272V7.19201H74.096V15.016C74.096 15.688 74.064 16.376 74 17.08C73.968 17.784 73.904 18.504 73.808 19.24C73.712 19.976 73.6 20.712 73.472 21.448C73.376 22.184 73.264 22.92 73.136 23.656H74.144C74.592 21.928 75.168 20.472 75.872 19.288C76.576 18.072 77.472 17.144 78.56 16.504C79.68 15.864 81.04 15.544 82.64 15.544C85.552 15.544 87.728 16.568 89.168 18.616C90.608 20.632 91.328 23.704 91.328 27.832V41.272H85.232V28.696C85.232 25.944 84.816 23.912 83.984 22.6C83.184 21.288 81.968 20.632 80.336 20.632C78.992 20.632 77.872 21.048 76.976 21.88C76.08 22.68 75.392 23.752 74.912 25.096C74.432 26.44 74.144 27.96 74.048 29.656V41.272H68Z" fill="white"/>
<path d="M103.527 41.896C102.151 41.896 100.919 41.64 99.8307 41.128C98.7427 40.584 97.8788 39.784 97.2388 38.728C96.6308 37.672 96.3267 36.36 96.3267 34.792C96.3267 33.48 96.5667 32.36 97.0467 31.432C97.5587 30.504 98.3107 29.752 99.3027 29.176C100.295 28.568 101.527 28.072 102.999 27.688C104.471 27.272 106.199 26.92 108.183 26.632C109.271 26.472 110.151 26.312 110.823 26.152C111.527 25.992 112.039 25.752 112.359 25.432C112.679 25.08 112.839 24.568 112.839 23.896C112.839 22.904 112.487 22.056 111.783 21.352C111.111 20.616 110.007 20.248 108.471 20.248C107.543 20.248 106.647 20.408 105.783 20.728C104.951 21.048 104.231 21.56 103.623 22.264C103.015 22.936 102.599 23.832 102.375 24.952L96.9508 23.272C97.3028 21.992 97.8147 20.888 98.4867 19.96C99.1587 19 99.9907 18.184 100.983 17.512C101.975 16.84 103.111 16.344 104.391 16.024C105.671 15.704 107.079 15.544 108.615 15.544C110.951 15.544 112.871 15.928 114.375 16.696C115.879 17.432 116.999 18.6 117.735 20.2C118.471 21.768 118.839 23.8 118.839 26.296V31C118.839 32.088 118.855 33.224 118.887 34.408C118.951 35.56 119.015 36.728 119.079 37.912C119.175 39.064 119.287 40.184 119.415 41.272H113.991C113.863 40.376 113.751 39.416 113.655 38.392C113.559 37.368 113.479 36.328 113.415 35.272H112.647C112.199 36.488 111.559 37.608 110.727 38.632C109.895 39.624 108.871 40.424 107.655 41.032C106.471 41.608 105.095 41.896 103.527 41.896ZM105.927 37.432C106.567 37.432 107.207 37.32 107.847 37.096C108.519 36.872 109.175 36.536 109.815 36.088C110.455 35.64 111.047 35.096 111.591 34.456C112.135 33.784 112.599 33 112.983 32.104L112.887 27.832L114.039 28.024C113.495 28.472 112.823 28.824 112.023 29.08C111.223 29.336 110.375 29.528 109.479 29.656C108.615 29.784 107.735 29.944 106.839 30.136C105.975 30.296 105.191 30.52 104.487 30.808C103.783 31.064 103.223 31.448 102.807 31.96C102.391 32.44 102.183 33.112 102.183 33.976C102.183 35.064 102.535 35.912 103.239 36.52C103.943 37.128 104.839 37.432 105.927 37.432Z" fill="white"/>
<path d="M125.375 49.24V16.168H130.463L130.415 22.984L131.231 23.032C131.551 21.432 132.063 20.072 132.767 18.952C133.503 17.832 134.431 16.984 135.551 16.408C136.671 15.832 137.999 15.544 139.535 15.544C141.775 15.544 143.679 16.104 145.247 17.224C146.815 18.312 147.999 19.864 148.799 21.88C149.631 23.864 150.047 26.184 150.047 28.84C150.047 31.336 149.663 33.576 148.895 35.56C148.159 37.512 147.023 39.064 145.487 40.216C143.983 41.336 142.111 41.896 139.871 41.896C138.239 41.896 136.863 41.576 135.743 40.936C134.623 40.296 133.711 39.416 133.007 38.296C132.303 37.176 131.727 35.88 131.279 34.408H130.415C130.607 35.272 130.767 36.168 130.895 37.096C131.055 37.992 131.183 38.888 131.279 39.784C131.375 40.648 131.423 41.48 131.423 42.28V49.24H125.375ZM137.903 36.952C139.151 36.952 140.207 36.616 141.071 35.944C141.935 35.24 142.591 34.28 143.039 33.064C143.487 31.816 143.711 30.392 143.711 28.792C143.711 27.128 143.471 25.688 142.991 24.472C142.543 23.256 141.871 22.312 140.975 21.64C140.079 20.968 139.023 20.632 137.807 20.632C136.751 20.632 135.823 20.872 135.023 21.352C134.223 21.832 133.551 22.472 133.007 23.272C132.463 24.04 132.063 24.872 131.807 25.768C131.551 26.664 131.423 27.544 131.423 28.408V29.224C131.423 29.864 131.503 30.536 131.663 31.24C131.855 31.912 132.127 32.6 132.479 33.304C132.831 33.976 133.263 34.6 133.775 35.176C134.287 35.72 134.895 36.152 135.599 36.472C136.303 36.792 137.071 36.952 137.903 36.952Z" fill="white"/>
<path d="M155.516 49.24V16.168H160.604L160.556 22.984L161.372 23.032C161.692 21.432 162.204 20.072 162.908 18.952C163.644 17.832 164.572 16.984 165.692 16.408C166.812 15.832 168.14 15.544 169.676 15.544C171.916 15.544 173.82 16.104 175.388 17.224C176.956 18.312 178.14 19.864 178.94 21.88C179.772 23.864 180.188 26.184 180.188 28.84C180.188 31.336 179.804 33.576 179.036 35.56C178.3 37.512 177.164 39.064 175.628 40.216C174.124 41.336 172.252 41.896 170.012 41.896C168.38 41.896 167.004 41.576 165.884 40.936C164.764 40.296 163.852 39.416 163.148 38.296C162.444 37.176 161.868 35.88 161.42 34.408H160.556C160.748 35.272 160.908 36.168 161.036 37.096C161.196 37.992 161.324 38.888 161.42 39.784C161.516 40.648 161.564 41.48 161.564 42.28V49.24H155.516ZM168.044 36.952C169.292 36.952 170.348 36.616 171.212 35.944C172.076 35.24 172.732 34.28 173.18 33.064C173.628 31.816 173.852 30.392 173.852 28.792C173.852 27.128 173.612 25.688 173.132 24.472C172.684 23.256 172.012 22.312 171.116 21.64C170.22 20.968 169.164 20.632 167.948 20.632C166.892 20.632 165.964 20.872 165.164 21.352C164.364 21.832 163.692 22.472 163.148 23.272C162.604 24.04 162.204 24.872 161.948 25.768C161.692 26.664 161.564 27.544 161.564 28.408V29.224C161.564 29.864 161.644 30.536 161.804 31.24C161.996 31.912 162.268 32.6 162.62 33.304C162.972 33.976 163.404 34.6 163.916 35.176C164.428 35.72 165.036 36.152 165.74 36.472C166.444 36.792 167.212 36.952 168.044 36.952Z" fill="white"/>
<path d="M194.781 49.864C193.501 49.864 192.205 49.736 190.893 49.48C189.581 49.224 188.349 48.824 187.197 48.28C186.077 47.768 185.133 47.096 184.365 46.264L186.429 41.272C187.357 42.328 188.557 43.128 190.029 43.672C191.501 44.216 192.989 44.488 194.493 44.488C196.253 44.488 197.709 44.12 198.861 43.384C200.013 42.68 200.893 41.576 201.501 40.072C202.109 38.568 202.445 36.696 202.509 34.456L202.845 29.896H201.837C201.517 32.072 200.989 33.848 200.253 35.224C199.517 36.568 198.589 37.56 197.469 38.2C196.381 38.808 195.101 39.112 193.629 39.112C191.805 39.112 190.269 38.648 189.021 37.72C187.773 36.792 186.829 35.416 186.189 33.592C185.581 31.768 185.277 29.512 185.277 26.824V16.168H191.373V25.432C191.373 28.44 191.741 30.632 192.477 32.008C193.213 33.352 194.333 34.024 195.837 34.024C196.637 34.024 197.373 33.816 198.045 33.4C198.717 32.952 199.277 32.328 199.725 31.528C200.205 30.696 200.573 29.672 200.829 28.456C201.117 27.24 201.277 25.848 201.309 24.28V16.168H207.405V34.696C207.405 36.712 207.229 38.536 206.877 40.168C206.557 41.768 206.061 43.16 205.389 44.344C204.717 45.56 203.869 46.584 202.845 47.416C201.853 48.248 200.685 48.856 199.341 49.24C197.997 49.656 196.477 49.864 194.781 49.864Z" fill="white"/>
<path d="M223.085 41.896C220.973 41.896 219.133 41.352 217.565 40.264C216.029 39.176 214.845 37.656 214.013 35.704C213.181 33.72 212.765 31.384 212.765 28.696C212.765 26.168 213.149 23.928 213.917 21.976C214.685 19.992 215.805 18.44 217.277 17.32C218.781 16.168 220.637 15.592 222.845 15.592C224.541 15.592 225.933 15.928 227.021 16.6C228.141 17.24 229.053 18.152 229.757 19.336C230.461 20.488 231.021 21.848 231.437 23.416H232.445C232.253 22.424 232.077 21.432 231.917 20.44C231.757 19.448 231.613 18.504 231.485 17.608C231.389 16.68 231.341 15.848 231.341 15.112V7.19201H237.437V41.272H232.301L232.397 34.168H231.485C231.133 35.832 230.589 37.24 229.853 38.392C229.117 39.544 228.189 40.424 227.069 41.032C225.981 41.608 224.653 41.896 223.085 41.896ZM225.005 36.904C226.061 36.904 226.989 36.664 227.789 36.184C228.589 35.672 229.245 35.032 229.757 34.264C230.301 33.496 230.701 32.664 230.957 31.768C231.245 30.84 231.389 29.976 231.389 29.176V28.36C231.389 27.752 231.293 27.096 231.101 26.392C230.941 25.688 230.685 25 230.333 24.328C230.013 23.624 229.581 23 229.037 22.456C228.525 21.88 227.917 21.432 227.213 21.112C226.541 20.76 225.789 20.584 224.957 20.584C223.709 20.584 222.653 20.936 221.789 21.64C220.925 22.344 220.253 23.304 219.773 24.52C219.325 25.736 219.101 27.16 219.101 28.792C219.101 30.424 219.341 31.848 219.821 33.064C220.301 34.28 220.973 35.224 221.837 35.896C222.733 36.568 223.789 36.904 225.005 36.904Z" fill="white"/>
<path d="M255.578 41.896C253.562 41.896 251.754 41.608 250.154 41.032C248.586 40.456 247.258 39.624 246.17 38.536C245.082 37.416 244.25 36.072 243.674 34.504C243.098 32.936 242.81 31.16 242.81 29.176C242.81 27.192 243.082 25.368 243.626 23.704C244.202 22.04 245.018 20.6 246.074 19.384C247.13 18.168 248.41 17.224 249.914 16.552C251.45 15.88 253.194 15.544 255.146 15.544C256.97 15.544 258.602 15.848 260.042 16.456C261.482 17.064 262.698 17.976 263.69 19.192C264.682 20.376 265.418 21.864 265.898 23.656C266.378 25.416 266.538 27.464 266.378 29.8L246.746 29.944V26.44L262.874 26.296L260.762 28.264C260.954 26.44 260.81 24.952 260.33 23.8C259.85 22.616 259.162 21.752 258.266 21.208C257.37 20.632 256.346 20.344 255.194 20.344C253.882 20.344 252.73 20.696 251.738 21.4C250.746 22.072 249.978 23.064 249.434 24.376C248.922 25.656 248.666 27.224 248.666 29.08C248.666 31.864 249.274 33.944 250.49 35.32C251.738 36.696 253.434 37.384 255.578 37.384C256.538 37.384 257.338 37.272 257.978 37.048C258.65 36.792 259.21 36.472 259.658 36.088C260.106 35.672 260.458 35.208 260.714 34.696C261.002 34.184 261.226 33.64 261.386 33.064L266.666 34.264C266.41 35.448 265.994 36.504 265.418 37.432C264.842 38.36 264.09 39.16 263.162 39.832C262.266 40.504 261.194 41.016 259.946 41.368C258.698 41.72 257.242 41.896 255.578 41.896Z" fill="white"/>
<path d="M281.932 41.896C280.236 41.896 278.7 41.72 277.324 41.368C275.98 41.048 274.827 40.584 273.867 39.976C272.907 39.336 272.14 38.584 271.564 37.72C270.988 36.824 270.636 35.832 270.508 34.744L275.26 32.968C275.324 33.8 275.643 34.552 276.219 35.224C276.795 35.864 277.596 36.376 278.62 36.76C279.644 37.144 280.876 37.336 282.316 37.336C283.916 37.336 285.148 37.096 286.012 36.616C286.908 36.104 287.355 35.384 287.355 34.456C287.355 33.784 287.115 33.256 286.635 32.872C286.155 32.456 285.451 32.12 284.523 31.864C283.627 31.576 282.54 31.304 281.26 31.048C280.076 30.792 278.876 30.504 277.66 30.184C276.476 29.832 275.372 29.384 274.348 28.84C273.356 28.264 272.54 27.528 271.9 26.632C271.292 25.704 270.988 24.536 270.988 23.128C270.988 21.592 271.388 20.264 272.188 19.144C273.02 18.024 274.204 17.144 275.74 16.504C277.308 15.864 279.196 15.544 281.404 15.544C283.484 15.544 285.275 15.832 286.779 16.408C288.315 16.984 289.563 17.816 290.523 18.904C291.483 19.96 292.092 21.224 292.348 22.696L287.355 24.28C287.259 23.384 286.955 22.632 286.443 22.024C285.931 21.384 285.244 20.904 284.38 20.584C283.516 20.264 282.507 20.104 281.355 20.104C279.883 20.104 278.732 20.36 277.9 20.872C277.068 21.384 276.652 22.072 276.652 22.936C276.652 23.64 276.907 24.2 277.419 24.616C277.963 25.032 278.7 25.368 279.628 25.624C280.588 25.88 281.675 26.136 282.891 26.392C284.171 26.648 285.403 26.952 286.587 27.304C287.803 27.624 288.892 28.056 289.852 28.6C290.812 29.144 291.58 29.864 292.156 30.76C292.732 31.624 293.02 32.744 293.02 34.12C293.02 35.784 292.572 37.208 291.676 38.392C290.78 39.544 289.499 40.424 287.835 41.032C286.203 41.608 284.236 41.896 281.932 41.896Z" fill="white"/>
<path d="M298.109 41.272V16.168H304.157V41.272H298.109ZM301.133 12.232C299.917 12.232 298.973 11.976 298.301 11.464C297.661 10.92 297.341 10.152 297.341 9.16001C297.341 8.16801 297.661 7.41601 298.301 6.90401C298.973 6.36001 299.917 6.08801 301.133 6.08801C302.413 6.08801 303.373 6.34401 304.013 6.85601C304.653 7.36801 304.973 8.13601 304.973 9.16001C304.973 10.152 304.637 10.92 303.965 11.464C303.325 11.976 302.381 12.232 301.133 12.232Z" fill="white"/>
<path d="M320.697 49.912C317.977 49.912 315.737 49.704 313.977 49.288C312.249 48.872 310.969 48.248 310.137 47.416C309.305 46.584 308.889 45.56 308.889 44.344C308.889 42.872 309.465 41.672 310.617 40.744C311.801 39.784 313.545 39.192 315.849 38.968V38.008C314.121 38.04 312.809 37.864 311.913 37.48C311.017 37.064 310.569 36.408 310.569 35.512C310.569 34.648 311.001 33.88 311.865 33.208C312.761 32.536 314.233 31.976 316.281 31.528V30.568C314.329 30.472 312.809 29.864 311.721 28.744C310.633 27.592 310.089 26.104 310.089 24.28C310.089 22.648 310.537 21.208 311.433 19.96C312.329 18.712 313.641 17.736 315.369 17.032C317.129 16.296 319.257 15.928 321.753 15.928H334.185V20.728L326.313 19.576V20.632C328.297 20.952 329.753 21.512 330.681 22.312C331.641 23.112 332.121 24.2 332.121 25.576C332.121 26.888 331.705 28.056 330.873 29.08C330.041 30.072 328.825 30.856 327.225 31.432C325.657 31.976 323.753 32.248 321.513 32.248C321.097 32.248 320.649 32.232 320.169 32.2C319.689 32.168 318.937 32.088 317.913 31.96C317.241 32.44 316.697 32.872 316.281 33.256C315.865 33.608 315.657 33.944 315.657 34.264C315.657 34.52 315.817 34.744 316.137 34.936C316.457 35.096 316.873 35.208 317.385 35.272C317.897 35.336 318.393 35.368 318.873 35.368H325.545C326.185 35.368 327.001 35.416 327.993 35.512C329.017 35.608 330.025 35.864 331.017 36.28C332.041 36.696 332.889 37.352 333.561 38.248C334.265 39.144 334.617 40.408 334.617 42.04C334.617 43.864 334.089 45.352 333.033 46.504C332.009 47.688 330.457 48.552 328.377 49.096C326.329 49.64 323.769 49.912 320.697 49.912ZM321.225 45.016C323.209 45.016 324.793 44.904 325.977 44.68C327.161 44.456 328.009 44.088 328.521 43.576C329.033 43.096 329.289 42.472 329.289 41.704C329.289 41 329.129 40.456 328.809 40.072C328.489 39.656 328.073 39.368 327.561 39.208C327.081 39.048 326.585 38.952 326.073 38.92C325.561 38.888 325.129 38.872 324.777 38.872H318.873C317.337 39.096 316.249 39.528 315.609 40.168C315.001 40.808 314.697 41.512 314.697 42.28C314.697 43.048 314.953 43.624 315.465 44.008C315.977 44.424 316.713 44.696 317.673 44.824C318.665 44.952 319.849 45.016 321.225 45.016ZM321.369 28.936C323.033 28.936 324.297 28.552 325.161 27.784C326.025 26.984 326.457 25.944 326.457 24.664C326.457 23.288 326.009 22.168 325.113 21.304C324.249 20.408 322.985 19.96 321.321 19.96C319.657 19.96 318.361 20.392 317.433 21.256C316.537 22.12 316.089 23.224 316.089 24.568C316.089 25.432 316.281 26.2 316.665 26.872C317.081 27.512 317.673 28.024 318.441 28.408C319.241 28.76 320.217 28.936 321.369 28.936Z" fill="white"/>
<path d="M339.5 41.272V16.168H344.54L344.396 23.848H345.26C345.708 21.96 346.3 20.408 347.036 19.192C347.804 17.976 348.78 17.064 349.964 16.456C351.148 15.848 352.524 15.544 354.092 15.544C356.94 15.544 359.1 16.552 360.572 18.568C362.076 20.584 362.828 23.704 362.828 27.928V41.272H356.732V28.552C356.732 25.832 356.316 23.848 355.484 22.6C354.684 21.32 353.484 20.68 351.884 20.68C350.54 20.68 349.404 21.112 348.476 21.976C347.548 22.808 346.828 23.928 346.316 25.336C345.836 26.712 345.58 28.232 345.548 29.896V41.272H339.5Z" fill="white"/>
<path d="M378.963 41.896C377.267 41.896 375.731 41.72 374.355 41.368C373.011 41.048 371.859 40.584 370.899 39.976C369.939 39.336 369.171 38.584 368.595 37.72C368.019 36.824 367.667 35.832 367.539 34.744L372.291 32.968C372.355 33.8 372.675 34.552 373.251 35.224C373.827 35.864 374.627 36.376 375.651 36.76C376.675 37.144 377.907 37.336 379.347 37.336C380.947 37.336 382.179 37.096 383.043 36.616C383.939 36.104 384.387 35.384 384.387 34.456C384.387 33.784 384.147 33.256 383.667 32.872C383.187 32.456 382.483 32.12 381.555 31.864C380.659 31.576 379.571 31.304 378.291 31.048C377.107 30.792 375.907 30.504 374.691 30.184C373.507 29.832 372.403 29.384 371.379 28.84C370.387 28.264 369.571 27.528 368.931 26.632C368.323 25.704 368.019 24.536 368.019 23.128C368.019 21.592 368.419 20.264 369.219 19.144C370.051 18.024 371.235 17.144 372.771 16.504C374.339 15.864 376.227 15.544 378.435 15.544C380.515 15.544 382.307 15.832 383.811 16.408C385.347 16.984 386.595 17.816 387.555 18.904C388.515 19.96 389.123 21.224 389.379 22.696L384.387 24.28C384.291 23.384 383.987 22.632 383.475 22.024C382.963 21.384 382.275 20.904 381.411 20.584C380.547 20.264 379.539 20.104 378.387 20.104C376.915 20.104 375.763 20.36 374.931 20.872C374.099 21.384 373.683 22.072 373.683 22.936C373.683 23.64 373.939 24.2 374.451 24.616C374.995 25.032 375.731 25.368 376.659 25.624C377.619 25.88 378.707 26.136 379.923 26.392C381.203 26.648 382.435 26.952 383.619 27.304C384.835 27.624 385.923 28.056 386.883 28.6C387.843 29.144 388.611 29.864 389.187 30.76C389.763 31.624 390.051 32.744 390.051 34.12C390.051 35.784 389.603 37.208 388.707 38.392C387.811 39.544 386.531 40.424 384.867 41.032C383.235 41.608 381.267 41.896 378.963 41.896Z" fill="white"/>
<path d="M397.289 41.848C395.977 41.848 394.985 41.56 394.313 40.984C393.641 40.408 393.305 39.512 393.305 38.296C393.305 37.048 393.641 36.136 394.313 35.56C394.985 34.984 395.977 34.696 397.289 34.696C398.665 34.696 399.689 34.984 400.361 35.56C401.065 36.136 401.417 37.048 401.417 38.296C401.417 40.664 400.041 41.848 397.289 41.848Z" fill="#D95B28"/>
</g>
<defs>
<clipPath id="clip0_31_24">
<rect width="401.417" height="56" fill="white"/>
</clipPath>
</defs>
</svg>
