<svg width="56" height="56" viewBox="0 0 56 56" fill="none" xmlns="http://www.w3.org/2000/svg">
<rect width="56" height="56" fill="white"/>
<path fill-rule="evenodd" clip-rule="evenodd" d="M43.664 38.219C42.1646 38.219 41.0309 37.8899 40.2629 37.2316C39.4949 36.5733 39.1109 35.5493 39.1109 34.1596C39.1109 32.7333 39.4949 31.691 40.2629 31.0327C41.0309 30.3744 42.1646 30.0453 43.664 30.0453C45.2366 30.0453 46.4069 30.3744 47.1749 31.0327C47.9794 31.691 48.3817 32.7333 48.3817 34.1596C48.3817 36.8659 46.8091 38.219 43.664 38.219Z" fill="white"/>
<path d="M17.3092 44.4675C15.6389 43.7773 14.3118 42.4536 13.62 40.7874L8.13718 27.5839C7.4453 25.9177 7.4453 24.0454 8.13718 22.3792L13.62 9.1757C14.3118 7.50953 15.6389 6.18578 17.3092 5.49562L17.3466 5.48016C17.8747 5.26198 18.4555 5.64912 18.4555 6.21927V18.6999C18.4555 19.4167 18.4042 20.3725 18.3015 21.5672C18.2331 22.7277 18.1133 23.9735 17.9422 25.3047C17.8054 26.6359 17.6514 27.9159 17.4803 29.1447C17.3434 30.3394 17.2237 31.3463 17.121 32.1655H17.5829C17.8909 29.3325 18.4213 27.0285 19.1741 25.2535C19.9269 23.4445 20.9535 22.1303 22.2538 21.3111C23.5541 20.4578 25.1281 20.0311 26.9759 20.0311C29.6918 20.0311 31.7513 20.9389 33.1545 22.7543C35.6822 26.0247 35.5604 28.9231 35.5604 33.0527C35.5605 34.9158 35.8816 37.1354 37.1084 38.9718L37.2302 39.1484C38.713 41.2364 40.7476 41.7816 42.397 41.7816C43.1774 41.7816 44.0329 41.6555 44.8727 41.3081V47.7624C43.6531 48.3879 42.3769 48.9188 41.0536 49.3455C39.2938 49.913 37.4509 50.296 35.5476 50.4717C35.3524 50.4897 35.1565 50.5055 34.96 50.5192C34.9501 50.5198 34.9403 50.5205 34.9305 50.5212C34.8224 50.5286 34.7141 50.5353 34.6056 50.5413C34.1253 50.568 33.6415 50.5816 33.1545 50.5816C32.854 50.5816 32.5547 50.5764 32.2567 50.5662C29.2832 50.4642 27.2325 47.8001 27.2325 44.8322V32.8311C27.2325 30.9197 26.9759 29.5202 26.4626 28.6327C25.9493 27.7453 25.111 27.3016 23.9476 27.3016C22.921 27.3016 21.9971 27.6941 21.1759 28.4792C20.3546 29.2301 19.6874 30.4418 19.1741 32.1143C18.695 33.7869 18.4555 35.9543 18.4555 38.6167V43.7438C18.4555 44.314 17.8747 44.7011 17.3466 44.4829L17.3092 44.4675Z" fill="#242423"/>
<path d="M40.2629 37.2316C41.0309 37.8899 42.1646 38.219 43.664 38.219C46.8091 38.219 48.3817 36.8659 48.3817 34.1596C48.3817 32.7333 47.9794 31.691 47.1749 31.0327C46.4069 30.3744 45.2366 30.0453 43.664 30.0453C42.1646 30.0453 41.0309 30.3744 40.2629 31.0327C39.4949 31.691 39.1109 32.7333 39.1109 34.1596C39.1109 35.5493 39.4949 36.5733 40.2629 37.2316Z" fill="#F28564"/>
</svg>
