<svg width="418" height="64" viewBox="0 0 418 64" fill="none" xmlns="http://www.w3.org/2000/svg">
<g clip-path="url(#clip0_29_8)">
<path fill-rule="evenodd" clip-rule="evenodd" d="M2.09267 10.4834C0 14.5905 0 19.967 0 30.72V33.28C0 44.033 0 49.4095 2.09267 53.5166C3.93344 57.1293 6.87067 60.0666 10.4834 61.9073C14.5905 64 19.967 64 30.72 64H33.28C44.033 64 49.4095 64 53.5166 61.9073C57.1293 60.0666 60.0666 57.1293 61.9073 53.5166C64 49.4095 64 44.033 64 33.28V30.72C64 19.967 64 14.5905 61.9073 10.4834C60.0666 6.87067 57.1293 3.93344 53.5166 2.09267C49.4095 0 44.033 0 33.28 0H30.72C19.967 0 14.5905 0 10.4834 2.09267C6.87067 3.93344 3.93344 6.87067 2.09267 10.4834ZM42.4457 45.2375C40.9463 45.2375 39.8126 44.9083 39.0446 44.25C38.2766 43.5917 37.8926 42.5677 37.8926 41.178C37.8926 39.7517 38.2766 38.7095 39.0446 38.0512C39.8126 37.3929 40.9463 37.0637 42.4457 37.0637C44.0183 37.0637 45.1886 37.3929 45.9566 38.0512C46.7612 38.7095 47.1635 39.7517 47.1635 41.178C47.1635 43.8843 45.5909 45.2375 42.4457 45.2375Z" fill="white"/>
<path fill-rule="evenodd" clip-rule="evenodd" d="M57.6 32C57.6 17.8615 49.0454 6.40003 31.9362 6.40003C14.827 6.40003 14.827 54 31.9362 54C49.0454 54 57.6 46.1385 57.6 32ZM42.4457 45.2375C40.9463 45.2375 39.8126 44.9083 39.0446 44.25C38.2766 43.5917 37.8926 42.5677 37.8926 41.178C37.8926 39.7517 38.2766 38.7095 39.0446 38.0512C39.8126 37.3929 40.9463 37.0637 42.4457 37.0637C44.0183 37.0637 45.1886 37.3929 45.9566 38.0512C46.7612 38.7095 47.1635 39.7517 47.1635 41.178C47.1635 43.8843 45.5909 45.2375 42.4457 45.2375Z" fill="#FFE4D4"/>
<path d="M16.0909 51.4859C14.4206 50.7958 13.0936 49.472 12.4017 47.8059L6.91892 34.6023C6.22704 32.9362 6.22704 31.0638 6.91892 29.3977L12.4017 16.1941C13.0936 14.528 14.4206 13.2042 16.0909 12.5141L16.1284 12.4986C16.6564 12.2804 17.2373 12.6676 17.2373 13.2377V25.7184C17.2373 26.4352 17.1859 27.3909 17.0833 28.5856C17.0148 29.7461 16.8951 30.992 16.724 32.3232C16.5871 33.6544 16.4331 34.9344 16.262 36.1632C16.1252 37.3579 16.0054 38.3648 15.9027 39.184H16.3647C16.6727 36.3509 17.203 34.0469 17.9558 32.272C18.7087 30.4629 19.7352 29.1488 21.0355 28.3296C22.3358 27.4763 23.9098 27.0496 25.7576 27.0496C28.4735 27.0496 30.5331 27.9573 31.9362 29.7727C34.4639 33.0431 34.3422 35.9416 34.3422 40.0711C34.3422 41.9343 34.6633 44.1538 35.8902 45.9902L36.012 46.1668C37.4947 48.2549 39.5294 48.8 41.1787 48.8C41.9591 48.8 42.8147 48.674 43.6544 48.3266V54.7809C42.4349 55.4063 41.1586 55.9373 39.8354 56.364C38.0755 56.9314 36.2326 57.3145 34.3294 57.4901C34.1341 57.5081 33.9382 57.524 33.7417 57.5376C33.7319 57.5383 33.722 57.539 33.7122 57.5396C33.6041 57.547 33.4958 57.5537 33.3873 57.5598C32.907 57.5865 32.4232 57.6 31.9362 57.6C31.6357 57.6 31.3364 57.5948 31.0384 57.5846C28.0649 57.4827 26.0143 54.8185 26.0143 51.8506V39.8496C26.0143 37.9381 25.7576 36.5387 25.2444 35.6512C24.7311 34.7637 23.8927 34.32 22.7293 34.32C21.7028 34.32 20.7789 34.7125 19.9576 35.4976C19.1364 36.2485 18.4691 37.4603 17.9558 39.1328C17.4768 40.8053 17.2373 42.9728 17.2373 45.6352V50.7623C17.2373 51.3324 16.6564 51.7196 16.1284 51.5014L16.0909 51.4859Z" fill="#242423"/>
<path d="M39.0446 44.25C39.8126 44.9083 40.9463 45.2375 42.4457 45.2375C45.5909 45.2375 47.1635 43.8843 47.1635 41.178C47.1635 39.7517 46.7612 38.7095 45.9566 38.0512C45.1886 37.3929 44.0183 37.0637 42.4457 37.0637C40.9463 37.0637 39.8126 37.3929 39.0446 38.0512C38.2766 38.7095 37.8926 39.7517 37.8926 41.178C37.8926 42.5677 38.2766 43.5917 39.0446 44.25Z" fill="#F28564"/>
<path d="M84 45.272V11.192H90.096V19.016C90.096 19.688 90.064 20.376 90 21.08C89.968 21.784 89.904 22.504 89.808 23.24C89.712 23.976 89.6 24.712 89.472 25.448C89.376 26.184 89.264 26.92 89.136 27.656H90.144C90.592 25.928 91.168 24.472 91.872 23.288C92.576 22.072 93.472 21.144 94.56 20.504C95.68 19.864 97.04 19.544 98.64 19.544C101.552 19.544 103.728 20.568 105.168 22.616C106.608 24.632 107.328 27.704 107.328 31.832V45.272H101.232V32.696C101.232 29.944 100.816 27.912 99.984 26.6C99.184 25.288 97.968 24.632 96.336 24.632C94.992 24.632 93.872 25.048 92.976 25.88C92.08 26.68 91.392 27.752 90.912 29.096C90.432 30.44 90.144 31.96 90.048 33.656V45.272H84Z" fill="white"/>
<path d="M119.527 45.896C118.151 45.896 116.919 45.64 115.831 45.128C114.743 44.584 113.879 43.784 113.239 42.728C112.631 41.672 112.327 40.36 112.327 38.792C112.327 37.48 112.567 36.36 113.047 35.432C113.559 34.504 114.311 33.752 115.303 33.176C116.295 32.568 117.527 32.072 118.999 31.688C120.471 31.272 122.199 30.92 124.183 30.632C125.271 30.472 126.151 30.312 126.823 30.152C127.527 29.992 128.039 29.752 128.359 29.432C128.679 29.08 128.839 28.568 128.839 27.896C128.839 26.904 128.487 26.056 127.783 25.352C127.111 24.616 126.007 24.248 124.471 24.248C123.543 24.248 122.647 24.408 121.783 24.728C120.951 25.048 120.231 25.56 119.623 26.264C119.015 26.936 118.599 27.832 118.375 28.952L112.951 27.272C113.303 25.992 113.815 24.888 114.487 23.96C115.159 23 115.991 22.184 116.983 21.512C117.975 20.84 119.111 20.344 120.391 20.024C121.671 19.704 123.079 19.544 124.615 19.544C126.951 19.544 128.871 19.928 130.375 20.696C131.879 21.432 132.999 22.6 133.735 24.2C134.471 25.768 134.839 27.8 134.839 30.296V35C134.839 36.088 134.855 37.224 134.887 38.408C134.951 39.56 135.015 40.728 135.079 41.912C135.175 43.064 135.287 44.184 135.415 45.272H129.991C129.863 44.376 129.751 43.416 129.655 42.392C129.559 41.368 129.479 40.328 129.415 39.272H128.647C128.199 40.488 127.559 41.608 126.727 42.632C125.895 43.624 124.871 44.424 123.655 45.032C122.471 45.608 121.095 45.896 119.527 45.896ZM121.927 41.432C122.567 41.432 123.207 41.32 123.847 41.096C124.519 40.872 125.175 40.536 125.815 40.088C126.455 39.64 127.047 39.096 127.591 38.456C128.135 37.784 128.599 37 128.983 36.104L128.887 31.832L130.039 32.024C129.495 32.472 128.823 32.824 128.023 33.08C127.223 33.336 126.375 33.528 125.479 33.656C124.615 33.784 123.735 33.944 122.839 34.136C121.975 34.296 121.191 34.52 120.487 34.808C119.783 35.064 119.223 35.448 118.807 35.96C118.391 36.44 118.183 37.112 118.183 37.976C118.183 39.064 118.535 39.912 119.239 40.52C119.943 41.128 120.839 41.432 121.927 41.432Z" fill="white"/>
<path d="M141.375 53.24V20.168H146.463L146.415 26.984L147.231 27.032C147.551 25.432 148.063 24.072 148.767 22.952C149.503 21.832 150.431 20.984 151.551 20.408C152.671 19.832 153.999 19.544 155.535 19.544C157.775 19.544 159.679 20.104 161.247 21.224C162.815 22.312 163.999 23.864 164.799 25.88C165.631 27.864 166.047 30.184 166.047 32.84C166.047 35.336 165.663 37.576 164.895 39.56C164.159 41.512 163.023 43.064 161.487 44.216C159.983 45.336 158.111 45.896 155.871 45.896C154.239 45.896 152.863 45.576 151.743 44.936C150.623 44.296 149.711 43.416 149.007 42.296C148.303 41.176 147.727 39.88 147.279 38.408H146.415C146.607 39.272 146.767 40.168 146.895 41.096C147.055 41.992 147.183 42.888 147.279 43.784C147.375 44.648 147.423 45.48 147.423 46.28V53.24H141.375ZM153.903 40.952C155.151 40.952 156.207 40.616 157.071 39.944C157.935 39.24 158.591 38.28 159.039 37.064C159.487 35.816 159.711 34.392 159.711 32.792C159.711 31.128 159.471 29.688 158.991 28.472C158.543 27.256 157.871 26.312 156.975 25.64C156.079 24.968 155.023 24.632 153.807 24.632C152.751 24.632 151.823 24.872 151.023 25.352C150.223 25.832 149.551 26.472 149.007 27.272C148.463 28.04 148.063 28.872 147.807 29.768C147.551 30.664 147.423 31.544 147.423 32.408V33.224C147.423 33.864 147.503 34.536 147.663 35.24C147.855 35.912 148.127 36.6 148.479 37.304C148.831 37.976 149.263 38.6 149.775 39.176C150.287 39.72 150.895 40.152 151.599 40.472C152.303 40.792 153.071 40.952 153.903 40.952Z" fill="white"/>
<path d="M171.516 53.24V20.168H176.604L176.556 26.984L177.372 27.032C177.692 25.432 178.204 24.072 178.908 22.952C179.644 21.832 180.572 20.984 181.692 20.408C182.812 19.832 184.14 19.544 185.676 19.544C187.916 19.544 189.82 20.104 191.388 21.224C192.956 22.312 194.14 23.864 194.94 25.88C195.772 27.864 196.188 30.184 196.188 32.84C196.188 35.336 195.804 37.576 195.036 39.56C194.3 41.512 193.164 43.064 191.628 44.216C190.124 45.336 188.252 45.896 186.012 45.896C184.38 45.896 183.004 45.576 181.884 44.936C180.764 44.296 179.852 43.416 179.148 42.296C178.444 41.176 177.868 39.88 177.42 38.408H176.556C176.748 39.272 176.908 40.168 177.036 41.096C177.196 41.992 177.324 42.888 177.42 43.784C177.516 44.648 177.564 45.48 177.564 46.28V53.24H171.516ZM184.044 40.952C185.292 40.952 186.348 40.616 187.212 39.944C188.076 39.24 188.732 38.28 189.18 37.064C189.628 35.816 189.852 34.392 189.852 32.792C189.852 31.128 189.612 29.688 189.132 28.472C188.684 27.256 188.012 26.312 187.116 25.64C186.22 24.968 185.164 24.632 183.948 24.632C182.892 24.632 181.964 24.872 181.164 25.352C180.364 25.832 179.692 26.472 179.148 27.272C178.604 28.04 178.204 28.872 177.948 29.768C177.692 30.664 177.564 31.544 177.564 32.408V33.224C177.564 33.864 177.644 34.536 177.804 35.24C177.996 35.912 178.268 36.6 178.62 37.304C178.972 37.976 179.404 38.6 179.916 39.176C180.428 39.72 181.036 40.152 181.74 40.472C182.444 40.792 183.212 40.952 184.044 40.952Z" fill="white"/>
<path d="M210.781 53.864C209.501 53.864 208.205 53.736 206.893 53.48C205.581 53.224 204.349 52.824 203.197 52.28C202.077 51.768 201.133 51.096 200.365 50.264L202.429 45.272C203.357 46.328 204.557 47.128 206.029 47.672C207.501 48.216 208.989 48.488 210.493 48.488C212.253 48.488 213.709 48.12 214.861 47.384C216.013 46.68 216.893 45.576 217.501 44.072C218.109 42.568 218.445 40.696 218.509 38.456L218.845 33.896H217.837C217.517 36.072 216.989 37.848 216.253 39.224C215.517 40.568 214.589 41.56 213.469 42.2C212.381 42.808 211.101 43.112 209.629 43.112C207.805 43.112 206.269 42.648 205.021 41.72C203.773 40.792 202.829 39.416 202.189 37.592C201.581 35.768 201.277 33.512 201.277 30.824V20.168H207.373V29.432C207.373 32.44 207.741 34.632 208.477 36.008C209.213 37.352 210.333 38.024 211.837 38.024C212.637 38.024 213.373 37.816 214.045 37.4C214.717 36.952 215.277 36.328 215.725 35.528C216.205 34.696 216.573 33.672 216.829 32.456C217.117 31.24 217.277 29.848 217.309 28.28V20.168H223.405V38.696C223.405 40.712 223.229 42.536 222.877 44.168C222.557 45.768 222.061 47.16 221.389 48.344C220.717 49.56 219.869 50.584 218.845 51.416C217.853 52.248 216.685 52.856 215.341 53.24C213.997 53.656 212.477 53.864 210.781 53.864Z" fill="white"/>
<path d="M239.085 45.896C236.973 45.896 235.133 45.352 233.565 44.264C232.029 43.176 230.845 41.656 230.013 39.704C229.181 37.72 228.765 35.384 228.765 32.696C228.765 30.168 229.149 27.928 229.917 25.976C230.685 23.992 231.805 22.44 233.277 21.32C234.781 20.168 236.637 19.592 238.845 19.592C240.541 19.592 241.933 19.928 243.021 20.6C244.141 21.24 245.053 22.152 245.757 23.336C246.461 24.488 247.021 25.848 247.437 27.416H248.445C248.253 26.424 248.077 25.432 247.917 24.44C247.757 23.448 247.613 22.504 247.485 21.608C247.389 20.68 247.341 19.848 247.341 19.112V11.192H253.437V45.272H248.301L248.397 38.168H247.485C247.133 39.832 246.589 41.24 245.853 42.392C245.117 43.544 244.189 44.424 243.069 45.032C241.981 45.608 240.653 45.896 239.085 45.896ZM241.005 40.904C242.061 40.904 242.989 40.664 243.789 40.184C244.589 39.672 245.245 39.032 245.757 38.264C246.301 37.496 246.701 36.664 246.957 35.768C247.245 34.84 247.389 33.976 247.389 33.176V32.36C247.389 31.752 247.293 31.096 247.101 30.392C246.941 29.688 246.685 29 246.333 28.328C246.013 27.624 245.581 27 245.037 26.456C244.525 25.88 243.917 25.432 243.213 25.112C242.541 24.76 241.789 24.584 240.957 24.584C239.709 24.584 238.653 24.936 237.789 25.64C236.925 26.344 236.253 27.304 235.773 28.52C235.325 29.736 235.101 31.16 235.101 32.792C235.101 34.424 235.341 35.848 235.821 37.064C236.301 38.28 236.973 39.224 237.837 39.896C238.733 40.568 239.789 40.904 241.005 40.904Z" fill="white"/>
<path d="M271.578 45.896C269.562 45.896 267.754 45.608 266.154 45.032C264.586 44.456 263.258 43.624 262.17 42.536C261.082 41.416 260.25 40.072 259.674 38.504C259.098 36.936 258.81 35.16 258.81 33.176C258.81 31.192 259.082 29.368 259.626 27.704C260.202 26.04 261.018 24.6 262.074 23.384C263.13 22.168 264.41 21.224 265.914 20.552C267.45 19.88 269.194 19.544 271.146 19.544C272.97 19.544 274.602 19.848 276.042 20.456C277.482 21.064 278.698 21.976 279.69 23.192C280.682 24.376 281.418 25.864 281.898 27.656C282.378 29.416 282.538 31.464 282.378 33.8L262.746 33.944V30.44L278.874 30.296L276.762 32.264C276.954 30.44 276.81 28.952 276.33 27.8C275.85 26.616 275.162 25.752 274.266 25.208C273.37 24.632 272.346 24.344 271.194 24.344C269.882 24.344 268.73 24.696 267.738 25.4C266.746 26.072 265.978 27.064 265.434 28.376C264.922 29.656 264.666 31.224 264.666 33.08C264.666 35.864 265.274 37.944 266.49 39.32C267.738 40.696 269.434 41.384 271.578 41.384C272.538 41.384 273.338 41.272 273.978 41.048C274.65 40.792 275.21 40.472 275.658 40.088C276.106 39.672 276.458 39.208 276.714 38.696C277.002 38.184 277.226 37.64 277.386 37.064L282.666 38.264C282.41 39.448 281.994 40.504 281.418 41.432C280.842 42.36 280.09 43.16 279.162 43.832C278.266 44.504 277.194 45.016 275.946 45.368C274.698 45.72 273.242 45.896 271.578 45.896Z" fill="white"/>
<path d="M297.932 45.896C296.236 45.896 294.7 45.72 293.324 45.368C291.98 45.048 290.827 44.584 289.867 43.976C288.907 43.336 288.14 42.584 287.564 41.72C286.988 40.824 286.636 39.832 286.508 38.744L291.26 36.968C291.324 37.8 291.643 38.552 292.219 39.224C292.795 39.864 293.596 40.376 294.62 40.76C295.644 41.144 296.876 41.336 298.316 41.336C299.916 41.336 301.148 41.096 302.012 40.616C302.908 40.104 303.355 39.384 303.355 38.456C303.355 37.784 303.115 37.256 302.635 36.872C302.155 36.456 301.451 36.12 300.523 35.864C299.627 35.576 298.54 35.304 297.26 35.048C296.076 34.792 294.876 34.504 293.66 34.184C292.476 33.832 291.372 33.384 290.348 32.84C289.356 32.264 288.54 31.528 287.9 30.632C287.292 29.704 286.988 28.536 286.988 27.128C286.988 25.592 287.388 24.264 288.188 23.144C289.02 22.024 290.204 21.144 291.74 20.504C293.308 19.864 295.196 19.544 297.404 19.544C299.484 19.544 301.275 19.832 302.779 20.408C304.315 20.984 305.563 21.816 306.523 22.904C307.483 23.96 308.092 25.224 308.348 26.696L303.355 28.28C303.259 27.384 302.955 26.632 302.443 26.024C301.931 25.384 301.244 24.904 300.38 24.584C299.516 24.264 298.507 24.104 297.355 24.104C295.883 24.104 294.732 24.36 293.9 24.872C293.068 25.384 292.652 26.072 292.652 26.936C292.652 27.64 292.907 28.2 293.419 28.616C293.963 29.032 294.7 29.368 295.628 29.624C296.588 29.88 297.675 30.136 298.891 30.392C300.171 30.648 301.403 30.952 302.587 31.304C303.803 31.624 304.892 32.056 305.852 32.6C306.812 33.144 307.58 33.864 308.156 34.76C308.732 35.624 309.02 36.744 309.02 38.12C309.02 39.784 308.572 41.208 307.676 42.392C306.78 43.544 305.499 44.424 303.835 45.032C302.203 45.608 300.236 45.896 297.932 45.896Z" fill="white"/>
<path d="M314.109 45.272V20.168H320.157V45.272H314.109ZM317.133 16.232C315.917 16.232 314.973 15.976 314.301 15.464C313.661 14.92 313.341 14.152 313.341 13.16C313.341 12.168 313.661 11.416 314.301 10.904C314.973 10.36 315.917 10.088 317.133 10.088C318.413 10.088 319.373 10.344 320.013 10.856C320.653 11.368 320.973 12.136 320.973 13.16C320.973 14.152 320.637 14.92 319.965 15.464C319.325 15.976 318.381 16.232 317.133 16.232Z" fill="white"/>
<path d="M336.697 53.912C333.977 53.912 331.737 53.704 329.977 53.288C328.249 52.872 326.969 52.248 326.137 51.416C325.305 50.584 324.889 49.56 324.889 48.344C324.889 46.872 325.465 45.672 326.617 44.744C327.801 43.784 329.545 43.192 331.849 42.968V42.008C330.121 42.04 328.809 41.864 327.913 41.48C327.017 41.064 326.569 40.408 326.569 39.512C326.569 38.648 327.001 37.88 327.865 37.208C328.761 36.536 330.233 35.976 332.281 35.528V34.568C330.329 34.472 328.809 33.864 327.721 32.744C326.633 31.592 326.089 30.104 326.089 28.28C326.089 26.648 326.537 25.208 327.433 23.96C328.329 22.712 329.641 21.736 331.369 21.032C333.129 20.296 335.257 19.928 337.753 19.928H350.185V24.728L342.313 23.576V24.632C344.297 24.952 345.753 25.512 346.681 26.312C347.641 27.112 348.121 28.2 348.121 29.576C348.121 30.888 347.705 32.056 346.873 33.08C346.041 34.072 344.825 34.856 343.225 35.432C341.657 35.976 339.753 36.248 337.513 36.248C337.097 36.248 336.649 36.232 336.169 36.2C335.689 36.168 334.937 36.088 333.913 35.96C333.241 36.44 332.697 36.872 332.281 37.256C331.865 37.608 331.657 37.944 331.657 38.264C331.657 38.52 331.817 38.744 332.137 38.936C332.457 39.096 332.873 39.208 333.385 39.272C333.897 39.336 334.393 39.368 334.873 39.368H341.545C342.185 39.368 343.001 39.416 343.993 39.512C345.017 39.608 346.025 39.864 347.017 40.28C348.041 40.696 348.889 41.352 349.561 42.248C350.265 43.144 350.617 44.408 350.617 46.04C350.617 47.864 350.089 49.352 349.033 50.504C348.009 51.688 346.457 52.552 344.377 53.096C342.329 53.64 339.769 53.912 336.697 53.912ZM337.225 49.016C339.209 49.016 340.793 48.904 341.977 48.68C343.161 48.456 344.009 48.088 344.521 47.576C345.033 47.096 345.289 46.472 345.289 45.704C345.289 45 345.129 44.456 344.809 44.072C344.489 43.656 344.073 43.368 343.561 43.208C343.081 43.048 342.585 42.952 342.073 42.92C341.561 42.888 341.129 42.872 340.777 42.872H334.873C333.337 43.096 332.249 43.528 331.609 44.168C331.001 44.808 330.697 45.512 330.697 46.28C330.697 47.048 330.953 47.624 331.465 48.008C331.977 48.424 332.713 48.696 333.673 48.824C334.665 48.952 335.849 49.016 337.225 49.016ZM337.369 32.936C339.033 32.936 340.297 32.552 341.161 31.784C342.025 30.984 342.457 29.944 342.457 28.664C342.457 27.288 342.009 26.168 341.113 25.304C340.249 24.408 338.985 23.96 337.321 23.96C335.657 23.96 334.361 24.392 333.433 25.256C332.537 26.12 332.089 27.224 332.089 28.568C332.089 29.432 332.281 30.2 332.665 30.872C333.081 31.512 333.673 32.024 334.441 32.408C335.241 32.76 336.217 32.936 337.369 32.936Z" fill="white"/>
<path d="M355.5 45.272V20.168H360.54L360.396 27.848H361.26C361.708 25.96 362.3 24.408 363.036 23.192C363.804 21.976 364.78 21.064 365.964 20.456C367.148 19.848 368.524 19.544 370.092 19.544C372.94 19.544 375.1 20.552 376.572 22.568C378.076 24.584 378.828 27.704 378.828 31.928V45.272H372.732V32.552C372.732 29.832 372.316 27.848 371.484 26.6C370.684 25.32 369.484 24.68 367.884 24.68C366.54 24.68 365.404 25.112 364.476 25.976C363.548 26.808 362.828 27.928 362.316 29.336C361.836 30.712 361.58 32.232 361.548 33.896V45.272H355.5Z" fill="white"/>
<path d="M394.963 45.896C393.267 45.896 391.731 45.72 390.355 45.368C389.011 45.048 387.859 44.584 386.899 43.976C385.939 43.336 385.171 42.584 384.595 41.72C384.019 40.824 383.667 39.832 383.539 38.744L388.291 36.968C388.355 37.8 388.675 38.552 389.251 39.224C389.827 39.864 390.627 40.376 391.651 40.76C392.675 41.144 393.907 41.336 395.347 41.336C396.947 41.336 398.179 41.096 399.043 40.616C399.939 40.104 400.387 39.384 400.387 38.456C400.387 37.784 400.147 37.256 399.667 36.872C399.187 36.456 398.483 36.12 397.555 35.864C396.659 35.576 395.571 35.304 394.291 35.048C393.107 34.792 391.907 34.504 390.691 34.184C389.507 33.832 388.403 33.384 387.379 32.84C386.387 32.264 385.571 31.528 384.931 30.632C384.323 29.704 384.019 28.536 384.019 27.128C384.019 25.592 384.419 24.264 385.219 23.144C386.051 22.024 387.235 21.144 388.771 20.504C390.339 19.864 392.227 19.544 394.435 19.544C396.515 19.544 398.307 19.832 399.811 20.408C401.347 20.984 402.595 21.816 403.555 22.904C404.515 23.96 405.123 25.224 405.379 26.696L400.387 28.28C400.291 27.384 399.987 26.632 399.475 26.024C398.963 25.384 398.275 24.904 397.411 24.584C396.547 24.264 395.539 24.104 394.387 24.104C392.915 24.104 391.763 24.36 390.931 24.872C390.099 25.384 389.683 26.072 389.683 26.936C389.683 27.64 389.939 28.2 390.451 28.616C390.995 29.032 391.731 29.368 392.659 29.624C393.619 29.88 394.707 30.136 395.923 30.392C397.203 30.648 398.435 30.952 399.619 31.304C400.835 31.624 401.923 32.056 402.883 32.6C403.843 33.144 404.611 33.864 405.187 34.76C405.763 35.624 406.051 36.744 406.051 38.12C406.051 39.784 405.603 41.208 404.707 42.392C403.811 43.544 402.531 44.424 400.867 45.032C399.235 45.608 397.267 45.896 394.963 45.896Z" fill="white"/>
<path d="M413.289 45.848C411.977 45.848 410.985 45.56 410.313 44.984C409.641 44.408 409.305 43.512 409.305 42.296C409.305 41.048 409.641 40.136 410.313 39.56C410.985 38.984 411.977 38.696 413.289 38.696C414.665 38.696 415.689 38.984 416.361 39.56C417.065 40.136 417.417 41.048 417.417 42.296C417.417 44.664 416.041 45.848 413.289 45.848Z" fill="#D95B28"/>
</g>
<defs>
<clipPath id="clip0_29_8">
<rect width="417.417" height="64" fill="white"/>
</clipPath>
</defs>
</svg>
