<svg width="334" height="164" viewBox="0 0 334 164" fill="none" xmlns="http://www.w3.org/2000/svg">
<g clip-path="url(#clip0_32_61)">
<path fill-rule="evenodd" clip-rule="evenodd" d="M3.13901 15.7251C0 21.8857 0 29.9505 0 46.08V49.92C0 66.0495 0 74.1143 3.13901 80.2749C5.90017 85.694 10.306 90.0998 15.7251 92.861C21.8857 96 29.9505 96 46.08 96H49.92C66.0495 96 74.1143 96 80.2749 92.861C85.694 90.0998 90.0998 85.694 92.861 80.2749C96 74.1143 96 66.0495 96 49.92V46.08C96 29.9505 96 21.8857 92.861 15.7251C90.0998 10.306 85.694 5.90017 80.2749 3.13901C74.1143 0 66.0495 0 49.92 0H46.08C29.9505 0 21.8857 0 15.7251 3.13901C10.306 5.90017 5.90017 10.306 3.13901 15.7251ZM63.6686 67.8562C61.4194 67.8562 59.7189 67.3625 58.5669 66.375C57.4149 65.3876 56.8389 63.8516 56.8389 61.767C56.8389 59.6276 57.4149 58.0642 58.5669 57.0767C59.7189 56.0893 61.4194 55.5956 63.6686 55.5956C66.0274 55.5956 67.7829 56.0893 68.9349 57.0767C70.1418 58.0642 70.7452 59.6276 70.7452 61.767C70.7452 65.8265 68.3863 67.8562 63.6686 67.8562Z" fill="white"/>
<path fill-rule="evenodd" clip-rule="evenodd" d="M86.4 48C86.4 26.7923 73.5681 9.60004 47.9043 9.60004C22.2405 9.60004 22.2405 81 47.9043 81C73.5681 81 86.4 69.2078 86.4 48ZM63.6686 67.8562C61.4194 67.8562 59.7189 67.3625 58.5669 66.375C57.4149 65.3876 56.8389 63.8516 56.8389 61.767C56.8389 59.6276 57.4149 58.0642 58.5669 57.0767C59.7189 56.0893 61.4194 55.5956 63.6686 55.5956C66.0274 55.5956 67.7829 56.0893 68.9349 57.0767C70.1418 58.0642 70.7452 59.6276 70.7452 61.767C70.7452 65.8265 68.3863 67.8562 63.6686 67.8562Z" fill="#FFE4D4"/>
<path d="M24.1364 77.2289C21.6309 76.1937 19.6404 74.208 18.6025 71.7088L10.3784 51.9035C9.34056 49.4042 9.34056 46.5958 10.3784 44.0965L18.6025 24.2912C19.6404 21.792 21.6309 19.8063 24.1364 18.7711L24.1925 18.7479C24.9846 18.4206 25.8559 19.0013 25.8559 19.8566V38.5776C25.8559 39.6528 25.7789 41.0864 25.6249 42.8784C25.5223 44.6192 25.3426 46.488 25.086 48.4848C24.8807 50.4816 24.6497 52.4016 24.393 54.2448C24.1877 56.0368 24.0081 57.5472 23.8541 58.776H24.547C25.009 54.5264 25.8046 51.0704 26.9338 48.408C28.063 45.6944 29.6028 43.7232 31.5533 42.4944C33.5037 41.2144 35.8648 40.5744 38.6365 40.5744C42.7103 40.5744 45.7996 41.936 47.9043 44.6591C51.6959 49.5647 51.5132 53.9123 51.5133 60.1067C51.5133 62.9014 51.995 66.2307 53.8353 68.9854L54.0179 69.2502C56.2421 72.3823 59.294 73.2 61.7681 73.2C62.9387 73.2 64.222 73.0109 65.4816 72.4899V82.1713C63.6523 83.1095 61.7379 83.9059 59.7531 84.5459C57.1133 85.3972 54.3489 85.9717 51.494 86.2352C51.2011 86.2622 50.9073 86.286 50.6125 86.3064C50.5978 86.3074 50.5831 86.3085 50.5683 86.3095C50.4062 86.3205 50.2437 86.3306 50.081 86.3396C49.3605 86.3797 48.6348 86.4 47.9043 86.4C47.4536 86.4 47.0046 86.3923 46.5576 86.3769C42.0974 86.224 39.0214 82.2278 39.0214 77.776V59.7744C39.0214 56.9072 38.6365 54.808 37.8665 53.4768C37.0966 52.1456 35.8391 51.48 34.094 51.48C32.5541 51.48 31.1683 52.0688 29.9364 53.2464C28.7046 54.3728 27.7037 56.1904 26.9338 58.6992C26.2152 61.208 25.8559 64.4592 25.8559 68.4528V76.1434C25.8559 76.9986 24.9846 77.5794 24.1925 77.2521L24.1364 77.2289Z" fill="#242423"/>
<path d="M58.5669 66.375C59.7189 67.3625 61.4194 67.8562 63.6686 67.8562C68.3863 67.8562 70.7452 65.8265 70.7452 61.767C70.7452 59.6276 70.1418 58.0642 68.9349 57.0767C67.7829 56.0893 66.0274 55.5956 63.6686 55.5956C61.4194 55.5956 59.7189 56.0893 58.5669 57.0767C57.4149 58.0642 56.8389 59.6276 56.8389 61.767C56.8389 63.8516 57.4149 65.3876 58.5669 66.375Z" fill="#F28564"/>
<path d="M0 155.184V121.104H6.096V128.928C6.096 129.6 6.064 130.288 6 130.992C5.968 131.696 5.904 132.416 5.808 133.152C5.712 133.888 5.6 134.624 5.472 135.36C5.376 136.096 5.264 136.832 5.136 137.568H6.144C6.592 135.84 7.168 134.384 7.872 133.2C8.576 131.984 9.472 131.056 10.56 130.416C11.68 129.776 13.04 129.456 14.64 129.456C17.552 129.456 19.728 130.48 21.168 132.528C22.608 134.544 23.328 137.616 23.328 141.744V155.184H17.232V142.608C17.232 139.856 16.816 137.824 15.984 136.512C15.184 135.2 13.968 134.544 12.336 134.544C10.992 134.544 9.872 134.96 8.976 135.792C8.08 136.592 7.392 137.664 6.912 139.008C6.432 140.352 6.144 141.872 6.048 143.568V155.184H0Z" fill="#242423"/>
<path d="M35.5267 155.808C34.1507 155.808 32.9187 155.552 31.8307 155.04C30.7427 154.496 29.8788 153.696 29.2388 152.64C28.6308 151.584 28.3267 150.272 28.3267 148.704C28.3267 147.392 28.5667 146.272 29.0467 145.344C29.5587 144.416 30.3107 143.664 31.3027 143.088C32.2947 142.48 33.5267 141.984 34.9987 141.6C36.4707 141.184 38.1988 140.832 40.1828 140.544C41.2708 140.384 42.1508 140.224 42.8228 140.064C43.5268 139.904 44.0387 139.664 44.3587 139.344C44.6787 138.992 44.8387 138.48 44.8387 137.808C44.8387 136.816 44.4867 135.968 43.7827 135.264C43.1107 134.528 42.0067 134.16 40.4707 134.16C39.5427 134.16 38.6467 134.32 37.7827 134.64C36.9507 134.96 36.2307 135.472 35.6227 136.176C35.0147 136.848 34.5988 137.744 34.3748 138.864L28.9508 137.184C29.3028 135.904 29.8147 134.8 30.4867 133.872C31.1587 132.912 31.9907 132.096 32.9827 131.424C33.9747 130.752 35.1108 130.256 36.3908 129.936C37.6708 129.616 39.0787 129.456 40.6147 129.456C42.9508 129.456 44.8708 129.84 46.3748 130.608C47.8788 131.344 48.9988 132.512 49.7348 134.112C50.4708 135.68 50.8388 137.712 50.8388 140.208V144.912C50.8388 146 50.8547 147.136 50.8867 148.32C50.9507 149.472 51.0147 150.64 51.0788 151.824C51.1748 152.976 51.2868 154.096 51.4147 155.184H45.9907C45.8627 154.288 45.7508 153.328 45.6548 152.304C45.5588 151.28 45.4788 150.24 45.4148 149.184H44.6468C44.1988 150.4 43.5588 151.52 42.7267 152.544C41.8947 153.536 40.8708 154.336 39.6548 154.944C38.4708 155.52 37.0947 155.808 35.5267 155.808ZM37.9268 151.344C38.5668 151.344 39.2067 151.232 39.8467 151.008C40.5187 150.784 41.1748 150.448 41.8148 150C42.4548 149.552 43.0468 149.008 43.5908 148.368C44.1348 147.696 44.5987 146.912 44.9827 146.016L44.8867 141.744L46.0387 141.936C45.4948 142.384 44.8228 142.736 44.0228 142.992C43.2228 143.248 42.3748 143.44 41.4788 143.568C40.6148 143.696 39.7347 143.856 38.8387 144.048C37.9747 144.208 37.1908 144.432 36.4868 144.72C35.7828 144.976 35.2228 145.36 34.8068 145.872C34.3908 146.352 34.1828 147.024 34.1828 147.888C34.1828 148.976 34.5348 149.824 35.2388 150.432C35.9428 151.04 36.8387 151.344 37.9268 151.344Z" fill="#242423"/>
<path d="M57.375 163.152V130.08H62.463L62.415 136.896L63.231 136.944C63.551 135.344 64.063 133.984 64.767 132.864C65.503 131.744 66.431 130.896 67.551 130.32C68.671 129.744 69.999 129.456 71.535 129.456C73.775 129.456 75.679 130.016 77.247 131.136C78.815 132.224 79.999 133.776 80.799 135.792C81.631 137.776 82.047 140.096 82.047 142.752C82.047 145.248 81.663 147.488 80.895 149.472C80.159 151.424 79.023 152.976 77.487 154.128C75.983 155.248 74.111 155.808 71.871 155.808C70.239 155.808 68.863 155.488 67.743 154.848C66.623 154.208 65.711 153.328 65.007 152.208C64.303 151.088 63.727 149.792 63.279 148.32H62.415C62.607 149.184 62.767 150.08 62.895 151.008C63.055 151.904 63.183 152.8 63.279 153.696C63.375 154.56 63.423 155.392 63.423 156.192V163.152H57.375ZM69.903 150.864C71.151 150.864 72.207 150.528 73.071 149.856C73.935 149.152 74.591 148.192 75.039 146.976C75.487 145.728 75.711 144.304 75.711 142.704C75.711 141.04 75.471 139.6 74.991 138.384C74.543 137.168 73.871 136.224 72.975 135.552C72.079 134.88 71.023 134.544 69.807 134.544C68.751 134.544 67.823 134.784 67.023 135.264C66.223 135.744 65.551 136.384 65.007 137.184C64.463 137.952 64.063 138.784 63.807 139.68C63.551 140.576 63.423 141.456 63.423 142.32V143.136C63.423 143.776 63.503 144.448 63.663 145.152C63.855 145.824 64.127 146.512 64.479 147.216C64.831 147.888 65.263 148.512 65.775 149.088C66.287 149.632 66.895 150.064 67.599 150.384C68.303 150.704 69.071 150.864 69.903 150.864Z" fill="#242423"/>
<path d="M87.5156 163.152V130.08H92.6036L92.5556 136.896L93.3716 136.944C93.6916 135.344 94.2036 133.984 94.9076 132.864C95.6436 131.744 96.5716 130.896 97.6916 130.32C98.8116 129.744 100.14 129.456 101.676 129.456C103.916 129.456 105.82 130.016 107.388 131.136C108.956 132.224 110.14 133.776 110.94 135.792C111.772 137.776 112.188 140.096 112.188 142.752C112.188 145.248 111.804 147.488 111.036 149.472C110.3 151.424 109.164 152.976 107.628 154.128C106.124 155.248 104.252 155.808 102.012 155.808C100.38 155.808 99.0036 155.488 97.8836 154.848C96.7636 154.208 95.8516 153.328 95.1476 152.208C94.4436 151.088 93.8676 149.792 93.4196 148.32H92.5556C92.7476 149.184 92.9076 150.08 93.0356 151.008C93.1956 151.904 93.3236 152.8 93.4196 153.696C93.5156 154.56 93.5636 155.392 93.5636 156.192V163.152H87.5156ZM100.044 150.864C101.292 150.864 102.348 150.528 103.212 149.856C104.076 149.152 104.732 148.192 105.18 146.976C105.628 145.728 105.852 144.304 105.852 142.704C105.852 141.04 105.612 139.6 105.132 138.384C104.684 137.168 104.012 136.224 103.116 135.552C102.22 134.88 101.164 134.544 99.9476 134.544C98.8916 134.544 97.9636 134.784 97.1636 135.264C96.3636 135.744 95.6916 136.384 95.1476 137.184C94.6036 137.952 94.2036 138.784 93.9476 139.68C93.6916 140.576 93.5636 141.456 93.5636 142.32V143.136C93.5636 143.776 93.6436 144.448 93.8036 145.152C93.9956 145.824 94.2676 146.512 94.6196 147.216C94.9716 147.888 95.4036 148.512 95.9156 149.088C96.4276 149.632 97.0356 150.064 97.7396 150.384C98.4436 150.704 99.2116 150.864 100.044 150.864Z" fill="#242423"/>
<path d="M126.781 163.776C125.501 163.776 124.205 163.648 122.893 163.392C121.581 163.136 120.349 162.736 119.197 162.192C118.077 161.68 117.133 161.008 116.365 160.176L118.429 155.184C119.357 156.24 120.557 157.04 122.029 157.584C123.501 158.128 124.989 158.4 126.493 158.4C128.253 158.4 129.709 158.032 130.861 157.296C132.013 156.592 132.893 155.488 133.501 153.984C134.109 152.48 134.445 150.608 134.509 148.368L134.845 143.808H133.837C133.517 145.984 132.989 147.76 132.253 149.136C131.517 150.48 130.589 151.472 129.469 152.112C128.381 152.72 127.101 153.024 125.629 153.024C123.805 153.024 122.269 152.56 121.021 151.632C119.773 150.704 118.829 149.328 118.189 147.504C117.581 145.68 117.277 143.424 117.277 140.736V130.08H123.373V139.344C123.373 142.352 123.741 144.544 124.477 145.92C125.213 147.264 126.333 147.936 127.837 147.936C128.637 147.936 129.373 147.728 130.045 147.312C130.717 146.864 131.277 146.24 131.725 145.44C132.205 144.608 132.573 143.584 132.829 142.368C133.117 141.152 133.277 139.76 133.309 138.192V130.08H139.405V148.608C139.405 150.624 139.229 152.448 138.877 154.08C138.557 155.68 138.061 157.072 137.389 158.256C136.717 159.472 135.869 160.496 134.845 161.328C133.853 162.16 132.685 162.768 131.341 163.152C129.997 163.568 128.477 163.776 126.781 163.776Z" fill="#242423"/>
<path d="M155.085 155.808C152.973 155.808 151.133 155.264 149.565 154.176C148.029 153.088 146.845 151.568 146.013 149.616C145.181 147.632 144.765 145.296 144.765 142.608C144.765 140.08 145.149 137.84 145.917 135.888C146.685 133.904 147.805 132.352 149.277 131.232C150.781 130.08 152.637 129.504 154.845 129.504C156.541 129.504 157.933 129.84 159.021 130.512C160.141 131.152 161.053 132.064 161.757 133.248C162.461 134.4 163.021 135.76 163.437 137.328H164.445C164.253 136.336 164.077 135.344 163.917 134.352C163.757 133.36 163.613 132.416 163.485 131.52C163.389 130.592 163.341 129.76 163.341 129.024V121.104H169.437V155.184H164.301L164.397 148.08H163.485C163.133 149.744 162.589 151.152 161.853 152.304C161.117 153.456 160.189 154.336 159.069 154.944C157.981 155.52 156.653 155.808 155.085 155.808ZM157.005 150.816C158.061 150.816 158.989 150.576 159.789 150.096C160.589 149.584 161.245 148.944 161.757 148.176C162.301 147.408 162.701 146.576 162.957 145.68C163.245 144.752 163.389 143.888 163.389 143.088V142.272C163.389 141.664 163.293 141.008 163.101 140.304C162.941 139.6 162.685 138.912 162.333 138.24C162.013 137.536 161.581 136.912 161.037 136.368C160.525 135.792 159.917 135.344 159.213 135.024C158.541 134.672 157.789 134.496 156.957 134.496C155.709 134.496 154.653 134.848 153.789 135.552C152.925 136.256 152.253 137.216 151.773 138.432C151.325 139.648 151.101 141.072 151.101 142.704C151.101 144.336 151.341 145.76 151.821 146.976C152.301 148.192 152.973 149.136 153.837 149.808C154.733 150.48 155.789 150.816 157.005 150.816Z" fill="#242423"/>
<path d="M187.578 155.808C185.562 155.808 183.754 155.52 182.154 154.944C180.586 154.368 179.258 153.536 178.17 152.448C177.082 151.328 176.25 149.984 175.674 148.416C175.098 146.848 174.81 145.072 174.81 143.088C174.81 141.104 175.082 139.28 175.626 137.616C176.202 135.952 177.018 134.512 178.074 133.296C179.13 132.08 180.41 131.136 181.914 130.464C183.45 129.792 185.194 129.456 187.146 129.456C188.97 129.456 190.602 129.76 192.042 130.368C193.482 130.976 194.698 131.888 195.69 133.104C196.682 134.288 197.418 135.776 197.898 137.568C198.378 139.328 198.538 141.376 198.378 143.712L178.746 143.856V140.352L194.874 140.208L192.762 142.176C192.954 140.352 192.81 138.864 192.33 137.712C191.85 136.528 191.162 135.664 190.266 135.12C189.37 134.544 188.346 134.256 187.194 134.256C185.882 134.256 184.73 134.608 183.738 135.312C182.746 135.984 181.978 136.976 181.434 138.288C180.922 139.568 180.666 141.136 180.666 142.992C180.666 145.776 181.274 147.856 182.49 149.232C183.738 150.608 185.434 151.296 187.578 151.296C188.538 151.296 189.338 151.184 189.978 150.96C190.65 150.704 191.21 150.384 191.658 150C192.106 149.584 192.458 149.12 192.714 148.608C193.002 148.096 193.226 147.552 193.386 146.976L198.666 148.176C198.41 149.36 197.994 150.416 197.418 151.344C196.842 152.272 196.09 153.072 195.162 153.744C194.266 154.416 193.194 154.928 191.946 155.28C190.698 155.632 189.242 155.808 187.578 155.808Z" fill="#242423"/>
<path d="M213.932 155.808C212.236 155.808 210.7 155.632 209.324 155.28C207.98 154.96 206.827 154.496 205.867 153.888C204.907 153.248 204.14 152.496 203.564 151.632C202.988 150.736 202.636 149.744 202.508 148.656L207.26 146.88C207.324 147.712 207.643 148.464 208.219 149.136C208.795 149.776 209.596 150.288 210.62 150.672C211.644 151.056 212.876 151.248 214.316 151.248C215.916 151.248 217.148 151.008 218.012 150.528C218.908 150.016 219.355 149.296 219.355 148.368C219.355 147.696 219.115 147.168 218.635 146.784C218.155 146.368 217.451 146.032 216.523 145.776C215.627 145.488 214.54 145.216 213.26 144.96C212.076 144.704 210.876 144.416 209.66 144.096C208.476 143.744 207.372 143.296 206.348 142.752C205.356 142.176 204.54 141.44 203.9 140.544C203.292 139.616 202.988 138.448 202.988 137.04C202.988 135.504 203.388 134.176 204.188 133.056C205.02 131.936 206.204 131.056 207.74 130.416C209.308 129.776 211.196 129.456 213.404 129.456C215.484 129.456 217.275 129.744 218.779 130.32C220.315 130.896 221.563 131.728 222.523 132.816C223.483 133.872 224.092 135.136 224.348 136.608L219.355 138.192C219.259 137.296 218.955 136.544 218.443 135.936C217.931 135.296 217.244 134.816 216.38 134.496C215.516 134.176 214.507 134.016 213.355 134.016C211.883 134.016 210.732 134.272 209.9 134.784C209.068 135.296 208.652 135.984 208.652 136.848C208.652 137.552 208.907 138.112 209.419 138.528C209.963 138.944 210.7 139.28 211.628 139.536C212.588 139.792 213.675 140.048 214.891 140.304C216.171 140.56 217.403 140.864 218.587 141.216C219.803 141.536 220.892 141.968 221.852 142.512C222.812 143.056 223.58 143.776 224.156 144.672C224.732 145.536 225.02 146.656 225.02 148.032C225.02 149.696 224.572 151.12 223.676 152.304C222.78 153.456 221.499 154.336 219.835 154.944C218.203 155.52 216.236 155.808 213.932 155.808Z" fill="#242423"/>
<path d="M230.109 155.184V130.08H236.157V155.184H230.109ZM233.133 126.144C231.917 126.144 230.973 125.888 230.301 125.376C229.661 124.832 229.341 124.064 229.341 123.072C229.341 122.08 229.661 121.328 230.301 120.816C230.973 120.272 231.917 120 233.133 120C234.413 120 235.373 120.256 236.013 120.768C236.653 121.28 236.973 122.048 236.973 123.072C236.973 124.064 236.637 124.832 235.965 125.376C235.325 125.888 234.381 126.144 233.133 126.144Z" fill="#242423"/>
<path d="M252.697 163.824C249.977 163.824 247.737 163.616 245.977 163.2C244.249 162.784 242.969 162.16 242.137 161.328C241.305 160.496 240.889 159.472 240.889 158.256C240.889 156.784 241.465 155.584 242.617 154.656C243.801 153.696 245.545 153.104 247.849 152.88V151.92C246.121 151.952 244.809 151.776 243.913 151.392C243.017 150.976 242.569 150.32 242.569 149.424C242.569 148.56 243.001 147.792 243.865 147.12C244.761 146.448 246.233 145.888 248.281 145.44V144.48C246.329 144.384 244.809 143.776 243.721 142.656C242.633 141.504 242.089 140.016 242.089 138.192C242.089 136.56 242.537 135.12 243.433 133.872C244.329 132.624 245.641 131.648 247.369 130.944C249.129 130.208 251.257 129.84 253.753 129.84H266.185V134.64L258.313 133.488V134.544C260.297 134.864 261.753 135.424 262.681 136.224C263.641 137.024 264.121 138.112 264.121 139.488C264.121 140.8 263.705 141.968 262.873 142.992C262.041 143.984 260.825 144.768 259.225 145.344C257.657 145.888 255.753 146.16 253.513 146.16C253.097 146.16 252.649 146.144 252.169 146.112C251.689 146.08 250.937 146 249.913 145.872C249.241 146.352 248.697 146.784 248.281 147.168C247.865 147.52 247.657 147.856 247.657 148.176C247.657 148.432 247.817 148.656 248.137 148.848C248.457 149.008 248.873 149.12 249.385 149.184C249.897 149.248 250.393 149.28 250.873 149.28H257.545C258.185 149.28 259.001 149.328 259.993 149.424C261.017 149.52 262.025 149.776 263.017 150.192C264.041 150.608 264.889 151.264 265.561 152.16C266.265 153.056 266.617 154.32 266.617 155.952C266.617 157.776 266.089 159.264 265.033 160.416C264.009 161.6 262.457 162.464 260.377 163.008C258.329 163.552 255.769 163.824 252.697 163.824ZM253.225 158.928C255.209 158.928 256.793 158.816 257.977 158.592C259.161 158.368 260.009 158 260.521 157.488C261.033 157.008 261.289 156.384 261.289 155.616C261.289 154.912 261.129 154.368 260.809 153.984C260.489 153.568 260.073 153.28 259.561 153.12C259.081 152.96 258.585 152.864 258.073 152.832C257.561 152.8 257.129 152.784 256.777 152.784H250.873C249.337 153.008 248.249 153.44 247.609 154.08C247.001 154.72 246.697 155.424 246.697 156.192C246.697 156.96 246.953 157.536 247.465 157.92C247.977 158.336 248.713 158.608 249.673 158.736C250.665 158.864 251.849 158.928 253.225 158.928ZM253.369 142.848C255.033 142.848 256.297 142.464 257.161 141.696C258.025 140.896 258.457 139.856 258.457 138.576C258.457 137.2 258.009 136.08 257.113 135.216C256.249 134.32 254.985 133.872 253.321 133.872C251.657 133.872 250.361 134.304 249.433 135.168C248.537 136.032 248.089 137.136 248.089 138.48C248.089 139.344 248.281 140.112 248.665 140.784C249.081 141.424 249.673 141.936 250.441 142.32C251.241 142.672 252.217 142.848 253.369 142.848Z" fill="#242423"/>
<path d="M271.5 155.184V130.08H276.54L276.396 137.76H277.26C277.708 135.872 278.3 134.32 279.036 133.104C279.804 131.888 280.78 130.976 281.964 130.368C283.148 129.76 284.524 129.456 286.092 129.456C288.94 129.456 291.1 130.464 292.572 132.48C294.076 134.496 294.828 137.616 294.828 141.84V155.184H288.732V142.464C288.732 139.744 288.316 137.76 287.484 136.512C286.684 135.232 285.484 134.592 283.884 134.592C282.54 134.592 281.404 135.024 280.476 135.888C279.548 136.72 278.828 137.84 278.316 139.248C277.836 140.624 277.58 142.144 277.548 143.808V155.184H271.5Z" fill="#242423"/>
<path d="M310.963 155.808C309.267 155.808 307.731 155.632 306.355 155.28C305.011 154.96 303.859 154.496 302.899 153.888C301.939 153.248 301.171 152.496 300.595 151.632C300.019 150.736 299.667 149.744 299.539 148.656L304.291 146.88C304.355 147.712 304.675 148.464 305.251 149.136C305.827 149.776 306.627 150.288 307.651 150.672C308.675 151.056 309.907 151.248 311.347 151.248C312.947 151.248 314.179 151.008 315.043 150.528C315.939 150.016 316.387 149.296 316.387 148.368C316.387 147.696 316.147 147.168 315.667 146.784C315.187 146.368 314.483 146.032 313.555 145.776C312.659 145.488 311.571 145.216 310.291 144.96C309.107 144.704 307.907 144.416 306.691 144.096C305.507 143.744 304.403 143.296 303.379 142.752C302.387 142.176 301.571 141.44 300.931 140.544C300.323 139.616 300.019 138.448 300.019 137.04C300.019 135.504 300.419 134.176 301.219 133.056C302.051 131.936 303.235 131.056 304.771 130.416C306.339 129.776 308.227 129.456 310.435 129.456C312.515 129.456 314.307 129.744 315.811 130.32C317.347 130.896 318.595 131.728 319.555 132.816C320.515 133.872 321.123 135.136 321.379 136.608L316.387 138.192C316.291 137.296 315.987 136.544 315.475 135.936C314.963 135.296 314.275 134.816 313.411 134.496C312.547 134.176 311.539 134.016 310.387 134.016C308.915 134.016 307.763 134.272 306.931 134.784C306.099 135.296 305.683 135.984 305.683 136.848C305.683 137.552 305.939 138.112 306.451 138.528C306.995 138.944 307.731 139.28 308.659 139.536C309.619 139.792 310.707 140.048 311.923 140.304C313.203 140.56 314.435 140.864 315.619 141.216C316.835 141.536 317.923 141.968 318.883 142.512C319.843 143.056 320.611 143.776 321.187 144.672C321.763 145.536 322.051 146.656 322.051 148.032C322.051 149.696 321.603 151.12 320.707 152.304C319.811 153.456 318.531 154.336 316.867 154.944C315.235 155.52 313.267 155.808 310.963 155.808Z" fill="#242423"/>
<path d="M329.289 155.76C327.977 155.76 326.985 155.472 326.313 154.896C325.641 154.32 325.305 153.424 325.305 152.208C325.305 150.96 325.641 150.048 326.313 149.472C326.985 148.896 327.977 148.608 329.289 148.608C330.665 148.608 331.689 148.896 332.361 149.472C333.065 150.048 333.417 150.96 333.417 152.208C333.417 154.576 332.041 155.76 329.289 155.76Z" fill="#D95B28"/>
</g>
<defs>
<clipPath id="clip0_32_61">
<rect width="333.417" height="163.824" fill="white"/>
</clipPath>
</defs>
</svg>
