<svg width="41" height="46" viewBox="0 0 41 46" fill="none" xmlns="http://www.w3.org/2000/svg">
<path fill-rule="evenodd" clip-rule="evenodd" d="M36.0457 32.8006C34.5463 32.8006 33.4126 32.4714 32.6446 31.8131C31.8766 31.1549 31.4926 30.1309 31.4926 28.7411C31.4926 27.3149 31.8766 26.2726 32.6446 25.6143C33.4126 24.956 34.5463 24.6269 36.0457 24.6269C37.6183 24.6269 38.7886 24.956 39.5566 25.6143C40.3612 26.2726 40.7635 27.3149 40.7635 28.7411C40.7635 31.4474 39.1909 32.8006 36.0457 32.8006Z" fill="white"/>
<path d="M9.69093 39.0491C8.02062 38.3589 6.69356 37.0351 6.00168 35.369L0.518909 22.1655C-0.17297 20.4993 -0.17297 18.627 0.518909 16.9608L6.00168 3.75726C6.69356 2.09109 8.02062 0.767335 9.69093 0.0771774L9.72834 0.0617231C10.2564 -0.156465 10.8372 0.230679 10.8372 0.800825V13.2815C10.8372 13.9983 10.7859 14.954 10.6833 16.1487C10.6148 17.3092 10.4951 18.5551 10.324 19.8863C10.1871 21.2175 10.0331 22.4975 9.86202 23.7263C9.72514 24.921 9.60538 25.9279 9.50273 26.7471H9.96468C10.2726 23.914 10.803 21.61 11.5558 19.8351C12.3086 18.026 13.3352 16.7119 14.6355 15.8927C15.9358 15.0394 17.5098 14.6127 19.3576 14.6127C22.0735 14.6127 24.133 15.5204 25.5362 17.3358C28.0639 20.6062 27.9421 23.5047 27.9422 27.6342C27.9422 29.4974 28.2633 31.7169 29.4902 33.5534L29.612 33.7299C31.0947 35.818 33.1294 36.3631 34.7787 36.3631C35.5591 36.3631 36.4146 36.2371 37.2544 35.8897V42.344C36.0349 42.9694 34.7586 43.5004 33.4354 43.9271C31.6755 44.4946 29.8326 44.8776 27.9293 45.0532C27.7341 45.0712 27.5382 45.0871 27.3417 45.1007C27.3319 45.1014 27.322 45.1021 27.3122 45.1028C27.2041 45.1101 27.0958 45.1168 26.9873 45.1229C26.507 45.1496 26.0232 45.1631 25.5362 45.1631C25.2357 45.1631 24.9364 45.158 24.6384 45.1477C21.6649 45.0458 19.6143 42.3817 19.6143 39.4138V27.4127C19.6143 25.5012 19.3576 24.1018 18.8444 23.2143C18.3311 22.3268 17.4927 21.8831 16.3293 21.8831C15.3027 21.8831 14.3789 22.2756 13.5576 23.0607C12.7364 23.8116 12.0691 25.0234 11.5558 26.6959C11.0768 28.3684 10.8372 30.5359 10.8372 33.1983V38.3254C10.8372 38.8955 10.2564 39.2827 9.72834 39.0645L9.69093 39.0491Z" fill="#242423"/>
<path d="M32.6446 31.8131C33.4126 32.4714 34.5463 32.8006 36.0457 32.8006C39.1909 32.8006 40.7635 31.4474 40.7635 28.7411C40.7635 27.3149 40.3612 26.2726 39.5566 25.6143C38.7886 24.956 37.6183 24.6269 36.0457 24.6269C34.5463 24.6269 33.4126 24.956 32.6446 25.6143C31.8766 26.2726 31.4926 27.3149 31.4926 28.7411C31.4926 30.1309 31.8766 31.1549 32.6446 31.8131Z" fill="#F28564"/>
</svg>
