<svg width="334" height="44" viewBox="0 0 334 44" fill="none" xmlns="http://www.w3.org/2000/svg">
<path d="M-4.64916e-06 35.184V19.584V1.10399H6.096V8.92799C6.096 9.59999 6.064 10.288 6 10.992C5.968 11.696 5.904 12.416 5.808 13.152C5.712 13.888 5.6 14.624 5.472 15.36C5.376 16.096 5.264 16.832 5.136 17.568H6.144C6.592 15.84 7.168 14.384 7.872 13.2C8.576 11.984 9.472 11.056 10.56 10.416C11.68 9.77599 13.04 9.45599 14.64 9.45599C17.552 9.45599 19.728 10.48 21.168 12.528C22.608 14.544 23.328 17.616 23.328 21.744V35.184H17.232V22.608C17.232 19.856 16.816 17.824 15.984 16.512C15.184 15.2 13.968 14.544 12.336 14.544C10.992 14.544 9.872 14.96 8.976 15.792C8.08 16.592 7.392 17.664 6.912 19.008C6.432 20.352 6.144 21.872 6.048 23.568V35.184H-4.64916e-06ZM35.5267 35.808C34.1507 35.808 32.9187 35.552 31.8307 35.04C30.7427 34.496 29.8787 33.696 29.2387 32.64C28.6307 31.584 28.3267 30.272 28.3267 28.704C28.3267 27.392 28.5667 26.272 29.0467 25.344C29.5587 24.416 30.3107 23.664 31.3027 23.088C32.2947 22.48 33.5267 21.984 34.9987 21.6C36.4707 21.184 38.1987 20.832 40.1827 20.544C41.2707 20.384 42.1507 20.224 42.8227 20.064C43.5267 19.904 44.0387 19.664 44.3587 19.344C44.6787 18.992 44.8387 18.48 44.8387 17.808C44.8387 16.816 44.4867 15.968 43.7827 15.264C43.1107 14.528 42.0067 14.16 40.4707 14.16C39.5427 14.16 38.6467 14.32 37.7827 14.64C36.9507 14.96 36.2307 15.472 35.6227 16.176C35.0147 16.848 34.5987 17.744 34.3747 18.864L28.9507 17.184C29.3027 15.904 29.8147 14.8 30.4867 13.872C31.1587 12.912 31.9907 12.096 32.9827 11.424C33.9747 10.752 35.1107 10.256 36.3907 9.93599C37.6707 9.61599 39.0787 9.45599 40.6147 9.45599C42.9507 9.45599 44.8707 9.83999 46.3747 10.608C47.8787 11.344 48.9987 12.512 49.7347 14.112C50.4707 15.68 50.8387 17.712 50.8387 20.208V24.912C50.8387 26 50.8547 27.136 50.8867 28.32C50.9507 29.472 51.0147 30.64 51.0787 31.824C51.1747 32.976 51.2867 34.096 51.4147 35.184H45.9907C45.8627 34.288 45.7507 33.328 45.6547 32.304C45.5587 31.28 45.4787 30.24 45.4147 29.184H44.6467C44.1987 30.4 43.5587 31.52 42.7267 32.544C41.8947 33.536 40.8707 34.336 39.6547 34.944C38.4707 35.52 37.0947 35.808 35.5267 35.808ZM37.9267 31.344C38.5667 31.344 39.2067 31.232 39.8467 31.008C40.5187 30.784 41.1747 30.448 41.8147 30C42.4547 29.552 43.0467 29.008 43.5907 28.368C44.1347 27.696 44.5987 26.912 44.9827 26.016L44.8867 21.744L46.0387 21.936C45.4947 22.384 44.8227 22.736 44.0227 22.992C43.2227 23.248 42.3747 23.44 41.4787 23.568C40.6147 23.696 39.7347 23.856 38.8387 24.048C37.9747 24.208 37.1907 24.432 36.4867 24.72C35.7827 24.976 35.2227 25.36 34.8067 25.872C34.3907 26.352 34.1827 27.024 34.1827 27.888C34.1827 28.976 34.5347 29.824 35.2387 30.432C35.9427 31.04 36.8387 31.344 37.9267 31.344ZM57.375 43.152V22.8V10.08H62.463L62.415 16.896L63.231 16.944C63.551 15.344 64.063 13.984 64.767 12.864C65.503 11.744 66.431 10.896 67.551 10.32C68.671 9.74399 69.999 9.45599 71.535 9.45599C73.775 9.45599 75.679 10.016 77.247 11.136C78.815 12.224 79.999 13.776 80.799 15.792C81.631 17.776 82.047 20.096 82.047 22.752C82.047 25.248 81.663 27.488 80.895 29.472C80.159 31.424 79.023 32.976 77.487 34.128C75.983 35.248 74.111 35.808 71.871 35.808C70.239 35.808 68.863 35.488 67.743 34.848C66.623 34.208 65.711 33.328 65.007 32.208C64.303 31.088 63.727 29.792 63.279 28.32H62.415C62.607 29.184 62.767 30.08 62.895 31.008C63.055 31.904 63.183 32.8 63.279 33.696C63.375 34.56 63.423 35.392 63.423 36.192V43.152H57.375ZM69.903 30.864C71.151 30.864 72.207 30.528 73.071 29.856C73.935 29.152 74.591 28.192 75.039 26.976C75.487 25.728 75.711 24.304 75.711 22.704C75.711 21.04 75.471 19.6 74.991 18.384C74.543 17.168 73.871 16.224 72.975 15.552C72.079 14.88 71.023 14.544 69.807 14.544C68.751 14.544 67.823 14.784 67.023 15.264C66.223 15.744 65.551 16.384 65.007 17.184C64.463 17.952 64.063 18.784 63.807 19.68C63.551 20.576 63.423 21.456 63.423 22.32V23.136C63.423 23.776 63.503 24.448 63.663 25.152C63.855 25.824 64.127 26.512 64.479 27.216C64.831 27.888 65.263 28.512 65.775 29.088C66.287 29.632 66.895 30.064 67.599 30.384C68.303 30.704 69.071 30.864 69.903 30.864ZM87.5156 43.152V22.8V10.08H92.6036L92.5556 16.896L93.3716 16.944C93.6916 15.344 94.2036 13.984 94.9076 12.864C95.6436 11.744 96.5716 10.896 97.6916 10.32C98.8116 9.74399 100.14 9.45599 101.676 9.45599C103.916 9.45599 105.82 10.016 107.388 11.136C108.956 12.224 110.14 13.776 110.94 15.792C111.772 17.776 112.188 20.096 112.188 22.752C112.188 25.248 111.804 27.488 111.036 29.472C110.3 31.424 109.164 32.976 107.628 34.128C106.124 35.248 104.252 35.808 102.012 35.808C100.38 35.808 99.0036 35.488 97.8836 34.848C96.7636 34.208 95.8516 33.328 95.1476 32.208C94.4436 31.088 93.8676 29.792 93.4196 28.32H92.5556C92.7476 29.184 92.9076 30.08 93.0356 31.008C93.1956 31.904 93.3236 32.8 93.4196 33.696C93.5156 34.56 93.5636 35.392 93.5636 36.192V43.152H87.5156ZM100.044 30.864C101.292 30.864 102.348 30.528 103.212 29.856C104.076 29.152 104.732 28.192 105.18 26.976C105.628 25.728 105.852 24.304 105.852 22.704C105.852 21.04 105.612 19.6 105.132 18.384C104.684 17.168 104.012 16.224 103.116 15.552C102.22 14.88 101.164 14.544 99.9476 14.544C98.8916 14.544 97.9636 14.784 97.1636 15.264C96.3636 15.744 95.6916 16.384 95.1476 17.184C94.6036 17.952 94.2036 18.784 93.9476 19.68C93.6916 20.576 93.5636 21.456 93.5636 22.32V23.136C93.5636 23.776 93.6436 24.448 93.8036 25.152C93.9956 25.824 94.2676 26.512 94.6196 27.216C94.9716 27.888 95.4036 28.512 95.9156 29.088C96.4276 29.632 97.0356 30.064 97.7396 30.384C98.4436 30.704 99.2116 30.864 100.044 30.864ZM126.781 43.776C125.501 43.776 124.205 43.648 122.893 43.392C121.581 43.136 120.349 42.736 119.197 42.192C118.077 41.68 117.133 41.008 116.365 40.176L118.429 35.184C119.357 36.24 120.557 37.04 122.029 37.584C123.501 38.128 124.989 38.4 126.493 38.4C128.253 38.4 129.709 38.032 130.861 37.296C132.013 36.592 132.893 35.488 133.501 33.984C134.109 32.48 134.445 30.608 134.509 28.368L134.845 23.808H133.837C133.517 25.984 132.989 27.76 132.253 29.136C131.517 30.48 130.589 31.472 129.469 32.112C128.381 32.72 127.101 33.024 125.629 33.024C123.805 33.024 122.269 32.56 121.021 31.632C119.773 30.704 118.829 29.328 118.189 27.504C117.581 25.68 117.277 23.424 117.277 20.736V10.08H123.373V19.344C123.373 22.352 123.741 24.544 124.477 25.92C125.213 27.264 126.333 27.936 127.837 27.936C128.637 27.936 129.373 27.728 130.045 27.312C130.717 26.864 131.277 26.24 131.725 25.44C132.205 24.608 132.573 23.584 132.829 22.368C133.117 21.152 133.277 19.76 133.309 18.192V10.08H139.405V28.608C139.405 30.624 139.229 32.448 138.877 34.08C138.557 35.68 138.061 37.072 137.389 38.256C136.717 39.472 135.869 40.496 134.845 41.328C133.853 42.16 132.685 42.768 131.341 43.152C129.997 43.568 128.477 43.776 126.781 43.776ZM155.085 35.808C152.973 35.808 151.133 35.264 149.565 34.176C148.029 33.088 146.845 31.568 146.013 29.616C145.181 27.632 144.765 25.296 144.765 22.608C144.765 20.08 145.149 17.84 145.917 15.888C146.685 13.904 147.805 12.352 149.277 11.232C150.781 10.08 152.637 9.50399 154.845 9.50399C156.541 9.50399 157.933 9.83999 159.021 10.512C160.141 11.152 161.053 12.064 161.757 13.248C162.461 14.4 163.021 15.76 163.437 17.328H164.445C164.253 16.336 164.077 15.344 163.917 14.352C163.757 13.36 163.613 12.416 163.485 11.52C163.389 10.592 163.341 9.75999 163.341 9.02399V1.10399H169.437V22.848V35.184H164.301L164.397 28.08H163.485C163.133 29.744 162.589 31.152 161.853 32.304C161.117 33.456 160.189 34.336 159.069 34.944C157.981 35.52 156.653 35.808 155.085 35.808ZM157.005 30.816C158.061 30.816 158.989 30.576 159.789 30.096C160.589 29.584 161.245 28.944 161.757 28.176C162.301 27.408 162.701 26.576 162.957 25.68C163.245 24.752 163.389 23.888 163.389 23.088V22.272C163.389 21.664 163.293 21.008 163.101 20.304C162.941 19.6 162.685 18.912 162.333 18.24C162.013 17.536 161.581 16.912 161.037 16.368C160.525 15.792 159.917 15.344 159.213 15.024C158.541 14.672 157.789 14.496 156.957 14.496C155.709 14.496 154.653 14.848 153.789 15.552C152.925 16.256 152.253 17.216 151.773 18.432C151.325 19.648 151.101 21.072 151.101 22.704C151.101 24.336 151.341 25.76 151.821 26.976C152.301 28.192 152.973 29.136 153.837 29.808C154.733 30.48 155.789 30.816 157.005 30.816ZM187.578 35.808C185.562 35.808 183.754 35.52 182.154 34.944C180.586 34.368 179.258 33.536 178.17 32.448C177.082 31.328 176.25 29.984 175.674 28.416C175.098 26.848 174.81 25.072 174.81 23.088C174.81 21.104 175.082 19.28 175.626 17.616C176.202 15.952 177.018 14.512 178.074 13.296C179.13 12.08 180.41 11.136 181.914 10.464C183.45 9.79199 185.194 9.45599 187.146 9.45599C188.97 9.45599 190.602 9.75999 192.042 10.368C193.482 10.976 194.698 11.888 195.69 13.104C196.682 14.288 197.418 15.776 197.898 17.568C198.378 19.328 198.538 21.376 198.378 23.712L178.746 23.856V20.352L194.874 20.208L192.762 22.176C192.954 20.352 192.81 18.864 192.33 17.712C191.85 16.528 191.162 15.664 190.266 15.12C189.37 14.544 188.346 14.256 187.194 14.256C185.882 14.256 184.73 14.608 183.738 15.312C182.746 15.984 181.978 16.976 181.434 18.288C180.922 19.568 180.666 21.136 180.666 22.992C180.666 25.776 181.274 27.856 182.49 29.232C183.738 30.608 185.434 31.296 187.578 31.296C188.538 31.296 189.338 31.184 189.978 30.96C190.65 30.704 191.21 30.384 191.658 30C192.106 29.584 192.458 29.12 192.714 28.608C193.002 28.096 193.226 27.552 193.386 26.976L198.666 28.176C198.41 29.36 197.994 30.416 197.418 31.344C196.842 32.272 196.09 33.072 195.162 33.744C194.266 34.416 193.194 34.928 191.946 35.28C190.698 35.632 189.242 35.808 187.578 35.808ZM213.931 35.808C212.235 35.808 210.699 35.632 209.323 35.28C207.979 34.96 206.827 34.496 205.867 33.888C204.907 33.248 204.139 32.496 203.563 31.632C202.987 30.736 202.635 29.744 202.507 28.656L207.259 26.88C207.323 27.712 207.643 28.464 208.219 29.136C208.795 29.776 209.595 30.288 210.619 30.672C211.643 31.056 212.875 31.248 214.315 31.248C215.915 31.248 217.147 31.008 218.011 30.528C218.907 30.016 219.355 29.296 219.355 28.368C219.355 27.696 219.115 27.168 218.635 26.784C218.155 26.368 217.451 26.032 216.523 25.776C215.627 25.488 214.539 25.216 213.259 24.96C212.075 24.704 210.875 24.416 209.659 24.096C208.475 23.744 207.371 23.296 206.347 22.752C205.355 22.176 204.539 21.44 203.899 20.544C203.291 19.616 202.987 18.448 202.987 17.04C202.987 15.504 203.387 14.176 204.187 13.056C205.019 11.936 206.203 11.056 207.739 10.416C209.307 9.77599 211.195 9.45599 213.403 9.45599C215.483 9.45599 217.275 9.74399 218.779 10.32C220.315 10.896 221.563 11.728 222.523 12.816C223.483 13.872 224.091 15.136 224.347 16.608L219.355 18.192C219.259 17.296 218.955 16.544 218.443 15.936C217.931 15.296 217.243 14.816 216.379 14.496C215.515 14.176 214.507 14.016 213.355 14.016C211.883 14.016 210.731 14.272 209.899 14.784C209.067 15.296 208.651 15.984 208.651 16.848C208.651 17.552 208.907 18.112 209.419 18.528C209.963 18.944 210.699 19.28 211.627 19.536C212.587 19.792 213.675 20.048 214.891 20.304C216.171 20.56 217.403 20.864 218.587 21.216C219.803 21.536 220.891 21.968 221.851 22.512C222.811 23.056 223.579 23.776 224.155 24.672C224.731 25.536 225.019 26.656 225.019 28.032C225.019 29.696 224.571 31.12 223.675 32.304C222.779 33.456 221.499 34.336 219.835 34.944C218.203 35.52 216.235 35.808 213.931 35.808ZM230.109 35.184V10.08H236.157V35.184H230.109ZM233.133 6.14399C231.917 6.14399 230.973 5.88799 230.301 5.37599C229.661 4.83199 229.341 4.06399 229.341 3.07199C229.341 2.07999 229.661 1.32799 230.301 0.815989C230.973 0.271989 231.917 -1.14441e-05 233.133 -1.14441e-05C234.413 -1.14441e-05 235.373 0.255989 236.013 0.76799C236.653 1.27999 236.973 2.04799 236.973 3.07199C236.973 4.06399 236.637 4.83199 235.965 5.37599C235.325 5.88799 234.381 6.14399 233.133 6.14399ZM252.697 43.824C249.977 43.824 247.737 43.616 245.977 43.2C244.249 42.784 242.969 42.16 242.137 41.328C241.305 40.496 240.889 39.472 240.889 38.256C240.889 36.784 241.465 35.584 242.617 34.656C243.801 33.696 245.545 33.104 247.849 32.88V31.92C246.121 31.952 244.809 31.776 243.913 31.392C243.017 30.976 242.569 30.32 242.569 29.424C242.569 28.56 243.001 27.792 243.865 27.12C244.761 26.448 246.233 25.888 248.281 25.44V24.48C246.329 24.384 244.809 23.776 243.721 22.656C242.633 21.504 242.089 20.016 242.089 18.192C242.089 16.56 242.537 15.12 243.433 13.872C244.329 12.624 245.641 11.648 247.369 10.944C249.129 10.208 251.257 9.83999 253.753 9.83999H266.185V14.64L258.313 13.488V14.544C260.297 14.864 261.753 15.424 262.681 16.224C263.641 17.024 264.121 18.112 264.121 19.488C264.121 20.8 263.705 21.968 262.873 22.992C262.041 23.984 260.825 24.768 259.225 25.344C257.657 25.888 255.753 26.16 253.513 26.16C253.097 26.16 252.649 26.144 252.169 26.112C251.689 26.08 250.937 26 249.913 25.872C249.241 26.352 248.697 26.784 248.281 27.168C247.865 27.52 247.657 27.856 247.657 28.176C247.657 28.432 247.817 28.656 248.137 28.848C248.457 29.008 248.873 29.12 249.385 29.184C249.897 29.248 250.393 29.28 250.873 29.28H257.545C258.185 29.28 259.001 29.328 259.993 29.424C261.017 29.52 262.025 29.776 263.017 30.192C264.041 30.608 264.889 31.264 265.561 32.16C266.265 33.056 266.617 34.32 266.617 35.952C266.617 37.776 266.089 39.264 265.033 40.416C264.009 41.6 262.457 42.464 260.377 43.008C258.329 43.552 255.769 43.824 252.697 43.824ZM253.225 38.928C255.209 38.928 256.793 38.816 257.977 38.592C259.161 38.368 260.009 38 260.521 37.488C261.033 37.008 261.289 36.384 261.289 35.616C261.289 34.912 261.129 34.368 260.809 33.984C260.489 33.568 260.073 33.28 259.561 33.12C259.081 32.96 258.585 32.864 258.073 32.832C257.561 32.8 257.129 32.784 256.777 32.784H250.873C249.337 33.008 248.249 33.44 247.609 34.08C247.001 34.72 246.697 35.424 246.697 36.192C246.697 36.96 246.953 37.536 247.465 37.92C247.977 38.336 248.713 38.608 249.673 38.736C250.665 38.864 251.849 38.928 253.225 38.928ZM253.369 22.848C255.033 22.848 256.297 22.464 257.161 21.696C258.025 20.896 258.457 19.856 258.457 18.576C258.457 17.2 258.009 16.08 257.113 15.216C256.249 14.32 254.985 13.872 253.321 13.872C251.657 13.872 250.361 14.304 249.433 15.168C248.537 16.032 248.089 17.136 248.089 18.48C248.089 19.344 248.281 20.112 248.665 20.784C249.081 21.424 249.673 21.936 250.441 22.32C251.241 22.672 252.217 22.848 253.369 22.848ZM271.5 35.184V19.872V10.08H276.54L276.396 17.76H277.26C277.708 15.872 278.3 14.32 279.036 13.104C279.804 11.888 280.78 10.976 281.964 10.368C283.148 9.75999 284.524 9.45599 286.092 9.45599C288.94 9.45599 291.1 10.464 292.572 12.48C294.076 14.496 294.828 17.616 294.828 21.84V35.184H288.732V22.464C288.732 19.744 288.316 17.76 287.484 16.512C286.684 15.232 285.484 14.592 283.884 14.592C282.54 14.592 281.404 15.024 280.476 15.888C279.548 16.72 278.828 17.84 278.316 19.248C277.836 20.624 277.58 22.144 277.548 23.808V35.184H271.5ZM310.963 35.808C309.267 35.808 307.731 35.632 306.355 35.28C305.011 34.96 303.859 34.496 302.899 33.888C301.939 33.248 301.171 32.496 300.595 31.632C300.019 30.736 299.667 29.744 299.539 28.656L304.291 26.88C304.355 27.712 304.675 28.464 305.251 29.136C305.827 29.776 306.627 30.288 307.651 30.672C308.675 31.056 309.907 31.248 311.347 31.248C312.947 31.248 314.179 31.008 315.043 30.528C315.939 30.016 316.387 29.296 316.387 28.368C316.387 27.696 316.147 27.168 315.667 26.784C315.187 26.368 314.483 26.032 313.555 25.776C312.659 25.488 311.571 25.216 310.291 24.96C309.107 24.704 307.907 24.416 306.691 24.096C305.507 23.744 304.403 23.296 303.379 22.752C302.387 22.176 301.571 21.44 300.931 20.544C300.323 19.616 300.019 18.448 300.019 17.04C300.019 15.504 300.419 14.176 301.219 13.056C302.051 11.936 303.235 11.056 304.771 10.416C306.339 9.77599 308.227 9.45599 310.435 9.45599C312.515 9.45599 314.307 9.74399 315.811 10.32C317.347 10.896 318.595 11.728 319.555 12.816C320.515 13.872 321.123 15.136 321.379 16.608L316.387 18.192C316.291 17.296 315.987 16.544 315.475 15.936C314.963 15.296 314.275 14.816 313.411 14.496C312.547 14.176 311.539 14.016 310.387 14.016C308.915 14.016 307.763 14.272 306.931 14.784C306.099 15.296 305.683 15.984 305.683 16.848C305.683 17.552 305.939 18.112 306.451 18.528C306.995 18.944 307.731 19.28 308.659 19.536C309.619 19.792 310.707 20.048 311.923 20.304C313.203 20.56 314.435 20.864 315.619 21.216C316.835 21.536 317.923 21.968 318.883 22.512C319.843 23.056 320.611 23.776 321.187 24.672C321.763 25.536 322.051 26.656 322.051 28.032C322.051 29.696 321.603 31.12 320.707 32.304C319.811 33.456 318.531 34.336 316.867 34.944C315.235 35.52 313.267 35.808 310.963 35.808Z" fill="#242423"/>
<path d="M329.289 35.76C327.977 35.76 326.985 35.472 326.313 34.896C325.641 34.32 325.305 33.424 325.305 32.208C325.305 30.96 325.641 30.048 326.313 29.472C326.985 28.896 327.977 28.608 329.289 28.608C330.665 28.608 331.689 28.896 332.361 29.472C333.065 30.048 333.417 30.96 333.417 32.208C333.417 34.576 332.041 35.76 329.289 35.76Z" fill="#F28564"/>
</svg>
