<svg width="64" height="64" viewBox="0 0 64 64" fill="none" xmlns="http://www.w3.org/2000/svg">
<path fill-rule="evenodd" clip-rule="evenodd" d="M2.09267 10.4834C0 14.5905 0 19.967 0 30.72V33.28C0 44.033 0 49.4095 2.09267 53.5166C3.93344 57.1293 6.87067 60.0666 10.4834 61.9073C14.5905 64 19.967 64 30.72 64H33.28C44.033 64 49.4095 64 53.5166 61.9073C57.1293 60.0666 60.0666 57.1293 61.9073 53.5166C64 49.4095 64 44.033 64 33.28V30.72C64 19.967 64 14.5905 61.9073 10.4834C60.0666 6.87067 57.1293 3.93344 53.5166 2.09267C49.4095 0 44.033 0 33.28 0H30.72C19.967 0 14.5905 0 10.4834 2.09267C6.87067 3.93344 3.93344 6.87067 2.09267 10.4834ZM42.4457 45.2375C40.9463 45.2375 39.8126 44.9083 39.0446 44.25C38.2766 43.5917 37.8926 42.5677 37.8926 41.178C37.8926 39.7517 38.2766 38.7095 39.0446 38.0512C39.8126 37.3929 40.9463 37.0637 42.4457 37.0637C44.0183 37.0637 45.1886 37.3929 45.9566 38.0512C46.7612 38.7095 47.1635 39.7517 47.1635 41.178C47.1635 43.8843 45.5909 45.2375 42.4457 45.2375Z" fill="white"/>
<path fill-rule="evenodd" clip-rule="evenodd" d="M57.6 32C57.6 17.8615 49.0454 6.40003 31.9362 6.40003C14.827 6.40003 14.827 54 31.9362 54C49.0454 54 57.6 46.1385 57.6 32ZM42.4457 45.2375C40.9463 45.2375 39.8126 44.9083 39.0446 44.25C38.2766 43.5917 37.8926 42.5677 37.8926 41.178C37.8926 39.7517 38.2766 38.7095 39.0446 38.0512C39.8126 37.3929 40.9463 37.0637 42.4457 37.0637C44.0183 37.0637 45.1886 37.3929 45.9566 38.0512C46.7612 38.7095 47.1635 39.7517 47.1635 41.178C47.1635 43.8843 45.5909 45.2375 42.4457 45.2375Z" fill="#FFE4D4"/>
<path d="M16.0909 51.4859C14.4206 50.7958 13.0936 49.472 12.4017 47.8059L6.91892 34.6023C6.22704 32.9362 6.22704 31.0638 6.91892 29.3977L12.4017 16.1941C13.0936 14.528 14.4206 13.2042 16.0909 12.5141L16.1284 12.4986C16.6564 12.2804 17.2373 12.6676 17.2373 13.2377V25.7184C17.2373 26.4352 17.1859 27.3909 17.0833 28.5856C17.0148 29.7461 16.8951 30.992 16.724 32.3232C16.5871 33.6544 16.4331 34.9344 16.262 36.1632C16.1252 37.3579 16.0054 38.3648 15.9027 39.184H16.3647C16.6727 36.3509 17.203 34.0469 17.9558 32.272C18.7087 30.4629 19.7352 29.1488 21.0355 28.3296C22.3358 27.4763 23.9098 27.0496 25.7576 27.0496C28.4735 27.0496 30.5331 27.9573 31.9362 29.7727C34.4639 33.0431 34.3422 35.9416 34.3422 40.0711C34.3422 41.9343 34.6633 44.1538 35.8902 45.9902L36.012 46.1668C37.4947 48.2549 39.5294 48.8 41.1787 48.8C41.9591 48.8 42.8147 48.674 43.6544 48.3266V54.7809C42.4349 55.4063 41.1586 55.9373 39.8354 56.364C38.0755 56.9314 36.2326 57.3145 34.3294 57.4901C34.1341 57.5081 33.9382 57.524 33.7417 57.5376C33.7319 57.5383 33.722 57.539 33.7122 57.5396C33.6041 57.547 33.4958 57.5537 33.3873 57.5598C32.907 57.5865 32.4232 57.6 31.9362 57.6C31.6357 57.6 31.3364 57.5948 31.0384 57.5846C28.0649 57.4827 26.0143 54.8185 26.0143 51.8506V39.8496C26.0143 37.9381 25.7576 36.5387 25.2444 35.6512C24.7311 34.7637 23.8927 34.32 22.7293 34.32C21.7028 34.32 20.7789 34.7125 19.9576 35.4976C19.1364 36.2485 18.4691 37.4603 17.9558 39.1328C17.4768 40.8053 17.2373 42.9728 17.2373 45.6352V50.7623C17.2373 51.3324 16.6564 51.7196 16.1284 51.5014L16.0909 51.4859Z" fill="#242423"/>
<path d="M39.0446 44.25C39.8126 44.9083 40.9463 45.2375 42.4457 45.2375C45.5909 45.2375 47.1635 43.8843 47.1635 41.178C47.1635 39.7517 46.7612 38.7095 45.9566 38.0512C45.1886 37.3929 44.0183 37.0637 42.4457 37.0637C40.9463 37.0637 39.8126 37.3929 39.0446 38.0512C38.2766 38.7095 37.8926 39.7517 37.8926 41.178C37.8926 42.5677 38.2766 43.5917 39.0446 44.25Z" fill="#F28564"/>
</svg>
