<svg width="338" height="58" viewBox="0 0 338 58" fill="none" xmlns="http://www.w3.org/2000/svg">
<g clip-path="url(#clip0_11_306)">
<path d="M3.408 45V29.4V10.92H9.504V18.744C9.504 19.416 9.472 20.104 9.408 20.808C9.376 21.512 9.312 22.232 9.216 22.968C9.12 23.704 9.008 24.44 8.88 25.176C8.784 25.912 8.672 26.648 8.544 27.384H9.552C10 25.656 10.576 24.2 11.28 23.016C11.984 21.8 12.88 20.872 13.968 20.232C15.088 19.592 16.448 19.272 18.048 19.272C20.96 19.272 23.136 20.296 24.576 22.344C26.016 24.36 26.736 27.432 26.736 31.56V45H20.64V32.424C20.64 29.672 20.224 27.64 19.392 26.328C18.592 25.016 17.376 24.36 15.744 24.36C14.4 24.36 13.28 24.776 12.384 25.608C11.488 26.408 10.8 27.48 10.32 28.824C9.84 30.168 9.552 31.688 9.456 33.384V45H3.408ZM38.9348 45.624C37.5588 45.624 36.3268 45.368 35.2388 44.856C34.1508 44.312 33.2868 43.512 32.6468 42.456C32.0388 41.4 31.7348 40.088 31.7348 38.52C31.7348 37.208 31.9748 36.088 32.4548 35.16C32.9668 34.232 33.7188 33.48 34.7108 32.904C35.7028 32.296 36.9348 31.8 38.4068 31.416C39.8788 31 41.6068 30.648 43.5908 30.36C44.6788 30.2 45.5588 30.04 46.2308 29.88C46.9348 29.72 47.4468 29.48 47.7668 29.16C48.0868 28.808 48.2468 28.296 48.2468 27.624C48.2468 26.632 47.8948 25.784 47.1908 25.08C46.5188 24.344 45.4148 23.976 43.8788 23.976C42.9508 23.976 42.0548 24.136 41.1908 24.456C40.3588 24.776 39.6388 25.288 39.0308 25.992C38.4228 26.664 38.0068 27.56 37.7828 28.68L32.3588 27C32.7108 25.72 33.2228 24.616 33.8948 23.688C34.5668 22.728 35.3988 21.912 36.3908 21.24C37.3828 20.568 38.5188 20.072 39.7988 19.752C41.0788 19.432 42.4868 19.272 44.0228 19.272C46.3588 19.272 48.2788 19.656 49.7828 20.424C51.2868 21.16 52.4068 22.328 53.1428 23.928C53.8788 25.496 54.2468 27.528 54.2468 30.024V34.728C54.2468 35.816 54.2628 36.952 54.2948 38.136C54.3588 39.288 54.4228 40.456 54.4868 41.64C54.5828 42.792 54.6948 43.912 54.8228 45H49.3988C49.2708 44.104 49.1588 43.144 49.0628 42.12C48.9668 41.096 48.8868 40.056 48.8228 39H48.0548C47.6068 40.216 46.9668 41.336 46.1348 42.36C45.3028 43.352 44.2788 44.152 43.0628 44.76C41.8788 45.336 40.5028 45.624 38.9348 45.624ZM41.3348 41.16C41.9748 41.16 42.6148 41.048 43.2548 40.824C43.9268 40.6 44.5828 40.264 45.2228 39.816C45.8628 39.368 46.4548 38.824 46.9988 38.184C47.5428 37.512 48.0068 36.728 48.3908 35.832L48.2948 31.56L49.4468 31.752C48.9028 32.2 48.2308 32.552 47.4308 32.808C46.6308 33.064 45.7828 33.256 44.8868 33.384C44.0228 33.512 43.1428 33.672 42.2468 33.864C41.3828 34.024 40.5988 34.248 39.8948 34.536C39.1908 34.792 38.6308 35.176 38.2148 35.688C37.7988 36.168 37.5908 36.84 37.5908 37.704C37.5908 38.792 37.9428 39.64 38.6468 40.248C39.3508 40.856 40.2468 41.16 41.3348 41.16ZM60.783 52.968V32.616V19.896H65.871L65.823 26.712L66.639 26.76C66.959 25.16 67.471 23.8 68.175 22.68C68.911 21.56 69.839 20.712 70.959 20.136C72.079 19.56 73.407 19.272 74.943 19.272C77.183 19.272 79.087 19.832 80.655 20.952C82.223 22.04 83.407 23.592 84.207 25.608C85.039 27.592 85.455 29.912 85.455 32.568C85.455 35.064 85.071 37.304 84.303 39.288C83.567 41.24 82.431 42.792 80.895 43.944C79.391 45.064 77.519 45.624 75.279 45.624C73.647 45.624 72.271 45.304 71.151 44.664C70.031 44.024 69.119 43.144 68.415 42.024C67.711 40.904 67.135 39.608 66.687 38.136H65.823C66.015 39 66.175 39.896 66.303 40.824C66.463 41.72 66.591 42.616 66.687 43.512C66.783 44.376 66.831 45.208 66.831 46.008V52.968H60.783ZM73.311 40.68C74.559 40.68 75.615 40.344 76.479 39.672C77.343 38.968 77.999 38.008 78.447 36.792C78.895 35.544 79.119 34.12 79.119 32.52C79.119 30.856 78.879 29.416 78.399 28.2C77.951 26.984 77.279 26.04 76.383 25.368C75.487 24.696 74.431 24.36 73.215 24.36C72.159 24.36 71.231 24.6 70.431 25.08C69.631 25.56 68.959 26.2 68.415 27C67.871 27.768 67.471 28.6 67.215 29.496C66.959 30.392 66.831 31.272 66.831 32.136V32.952C66.831 33.592 66.911 34.264 67.071 34.968C67.263 35.64 67.535 36.328 67.887 37.032C68.239 37.704 68.671 38.328 69.183 38.904C69.695 39.448 70.303 39.88 71.007 40.2C71.711 40.52 72.479 40.68 73.311 40.68ZM90.9236 52.968V32.616V19.896H96.0116L95.9636 26.712L96.7796 26.76C97.0996 25.16 97.6116 23.8 98.3156 22.68C99.0516 21.56 99.9796 20.712 101.1 20.136C102.22 19.56 103.548 19.272 105.084 19.272C107.324 19.272 109.228 19.832 110.796 20.952C112.364 22.04 113.548 23.592 114.348 25.608C115.18 27.592 115.596 29.912 115.596 32.568C115.596 35.064 115.212 37.304 114.444 39.288C113.708 41.24 112.572 42.792 111.036 43.944C109.532 45.064 107.66 45.624 105.42 45.624C103.788 45.624 102.412 45.304 101.292 44.664C100.172 44.024 99.2596 43.144 98.5556 42.024C97.8516 40.904 97.2756 39.608 96.8276 38.136H95.9636C96.1556 39 96.3156 39.896 96.4436 40.824C96.6036 41.72 96.7316 42.616 96.8276 43.512C96.9236 44.376 96.9716 45.208 96.9716 46.008V52.968H90.9236ZM103.452 40.68C104.7 40.68 105.756 40.344 106.62 39.672C107.484 38.968 108.14 38.008 108.588 36.792C109.036 35.544 109.26 34.12 109.26 32.52C109.26 30.856 109.02 29.416 108.54 28.2C108.092 26.984 107.42 26.04 106.524 25.368C105.628 24.696 104.572 24.36 103.356 24.36C102.3 24.36 101.372 24.6 100.572 25.08C99.7716 25.56 99.0996 26.2 98.5556 27C98.0116 27.768 97.6116 28.6 97.3556 29.496C97.0996 30.392 96.9716 31.272 96.9716 32.136V32.952C96.9716 33.592 97.0516 34.264 97.2116 34.968C97.4036 35.64 97.6756 36.328 98.0276 37.032C98.3796 37.704 98.8116 38.328 99.3236 38.904C99.8356 39.448 100.444 39.88 101.148 40.2C101.852 40.52 102.62 40.68 103.452 40.68ZM130.189 53.592C128.909 53.592 127.613 53.464 126.301 53.208C124.989 52.952 123.757 52.552 122.605 52.008C121.485 51.496 120.541 50.824 119.773 49.992L121.837 45C122.765 46.056 123.965 46.856 125.437 47.4C126.909 47.944 128.397 48.216 129.901 48.216C131.661 48.216 133.117 47.848 134.269 47.112C135.421 46.408 136.301 45.304 136.909 43.8C137.517 42.296 137.853 40.424 137.917 38.184L138.253 33.624H137.245C136.925 35.8 136.397 37.576 135.661 38.952C134.925 40.296 133.997 41.288 132.877 41.928C131.789 42.536 130.509 42.84 129.037 42.84C127.213 42.84 125.677 42.376 124.429 41.448C123.181 40.52 122.237 39.144 121.597 37.32C120.989 35.496 120.685 33.24 120.685 30.552V19.896H126.781V29.16C126.781 32.168 127.149 34.36 127.885 35.736C128.621 37.08 129.741 37.752 131.245 37.752C132.045 37.752 132.781 37.544 133.453 37.128C134.125 36.68 134.685 36.056 135.133 35.256C135.613 34.424 135.981 33.4 136.237 32.184C136.525 30.968 136.685 29.576 136.717 28.008V19.896H142.813V38.424C142.813 40.44 142.637 42.264 142.285 43.896C141.965 45.496 141.469 46.888 140.797 48.072C140.125 49.288 139.277 50.312 138.253 51.144C137.261 51.976 136.093 52.584 134.749 52.968C133.405 53.384 131.885 53.592 130.189 53.592ZM158.493 45.624C156.381 45.624 154.541 45.08 152.973 43.992C151.437 42.904 150.253 41.384 149.421 39.432C148.589 37.448 148.173 35.112 148.173 32.424C148.173 29.896 148.557 27.656 149.325 25.704C150.093 23.72 151.213 22.168 152.685 21.048C154.189 19.896 156.045 19.32 158.253 19.32C159.949 19.32 161.341 19.656 162.429 20.328C163.549 20.968 164.461 21.88 165.165 23.064C165.869 24.216 166.429 25.576 166.845 27.144H167.853C167.661 26.152 167.485 25.16 167.325 24.168C167.165 23.176 167.021 22.232 166.893 21.336C166.797 20.408 166.749 19.576 166.749 18.84V10.92H172.845V32.664V45H167.709L167.805 37.896H166.893C166.541 39.56 165.997 40.968 165.261 42.12C164.525 43.272 163.597 44.152 162.477 44.76C161.389 45.336 160.061 45.624 158.493 45.624ZM160.413 40.632C161.469 40.632 162.397 40.392 163.197 39.912C163.997 39.4 164.653 38.76 165.165 37.992C165.709 37.224 166.109 36.392 166.365 35.496C166.653 34.568 166.797 33.704 166.797 32.904V32.088C166.797 31.48 166.701 30.824 166.509 30.12C166.349 29.416 166.093 28.728 165.741 28.056C165.421 27.352 164.989 26.728 164.445 26.184C163.933 25.608 163.325 25.16 162.621 24.84C161.949 24.488 161.197 24.312 160.365 24.312C159.117 24.312 158.061 24.664 157.197 25.368C156.333 26.072 155.661 27.032 155.181 28.248C154.733 29.464 154.509 30.888 154.509 32.52C154.509 34.152 154.749 35.576 155.229 36.792C155.709 38.008 156.381 38.952 157.245 39.624C158.141 40.296 159.197 40.632 160.413 40.632ZM190.986 45.624C188.97 45.624 187.162 45.336 185.562 44.76C183.994 44.184 182.666 43.352 181.578 42.264C180.49 41.144 179.658 39.8 179.082 38.232C178.506 36.664 178.218 34.888 178.218 32.904C178.218 30.92 178.49 29.096 179.034 27.432C179.61 25.768 180.426 24.328 181.482 23.112C182.538 21.896 183.818 20.952 185.322 20.28C186.858 19.608 188.602 19.272 190.554 19.272C192.378 19.272 194.01 19.576 195.45 20.184C196.89 20.792 198.106 21.704 199.098 22.92C200.09 24.104 200.826 25.592 201.306 27.384C201.786 29.144 201.946 31.192 201.786 33.528L182.154 33.672V30.168L198.282 30.024L196.17 31.992C196.362 30.168 196.218 28.68 195.738 27.528C195.258 26.344 194.57 25.48 193.674 24.936C192.778 24.36 191.754 24.072 190.602 24.072C189.29 24.072 188.138 24.424 187.146 25.128C186.154 25.8 185.386 26.792 184.842 28.104C184.33 29.384 184.074 30.952 184.074 32.808C184.074 35.592 184.682 37.672 185.898 39.048C187.146 40.424 188.842 41.112 190.986 41.112C191.946 41.112 192.746 41 193.386 40.776C194.058 40.52 194.618 40.2 195.066 39.816C195.514 39.4 195.866 38.936 196.122 38.424C196.41 37.912 196.634 37.368 196.794 36.792L202.074 37.992C201.818 39.176 201.402 40.232 200.826 41.16C200.25 42.088 199.498 42.888 198.57 43.56C197.674 44.232 196.602 44.744 195.354 45.096C194.106 45.448 192.65 45.624 190.986 45.624ZM217.34 45.624C215.644 45.624 214.108 45.448 212.732 45.096C211.388 44.776 210.236 44.312 209.276 43.704C208.316 43.064 207.548 42.312 206.972 41.448C206.396 40.552 206.044 39.56 205.916 38.472L210.668 36.696C210.732 37.528 211.052 38.28 211.628 38.952C212.204 39.592 213.004 40.104 214.028 40.488C215.052 40.872 216.284 41.064 217.724 41.064C219.324 41.064 220.556 40.824 221.42 40.344C222.316 39.832 222.764 39.112 222.764 38.184C222.764 37.512 222.524 36.984 222.044 36.6C221.564 36.184 220.86 35.848 219.932 35.592C219.036 35.304 217.948 35.032 216.668 34.776C215.484 34.52 214.284 34.232 213.068 33.912C211.884 33.56 210.78 33.112 209.756 32.568C208.764 31.992 207.948 31.256 207.308 30.36C206.7 29.432 206.396 28.264 206.396 26.856C206.396 25.32 206.796 23.992 207.596 22.872C208.428 21.752 209.612 20.872 211.148 20.232C212.716 19.592 214.604 19.272 216.812 19.272C218.892 19.272 220.684 19.56 222.188 20.136C223.724 20.712 224.972 21.544 225.932 22.632C226.892 23.688 227.5 24.952 227.756 26.424L222.764 28.008C222.668 27.112 222.364 26.36 221.852 25.752C221.34 25.112 220.652 24.632 219.788 24.312C218.924 23.992 217.916 23.832 216.764 23.832C215.292 23.832 214.14 24.088 213.308 24.6C212.476 25.112 212.06 25.8 212.06 26.664C212.06 27.368 212.316 27.928 212.828 28.344C213.372 28.76 214.108 29.096 215.036 29.352C215.996 29.608 217.084 29.864 218.299 30.12C219.58 30.376 220.812 30.68 221.996 31.032C223.212 31.352 224.3 31.784 225.26 32.328C226.22 32.872 226.988 33.592 227.564 34.488C228.14 35.352 228.427 36.472 228.427 37.848C228.427 39.512 227.98 40.936 227.084 42.12C226.188 43.272 224.908 44.152 223.244 44.76C221.612 45.336 219.644 45.624 217.34 45.624ZM233.517 45V19.896H239.565V45H233.517ZM236.541 15.96C235.325 15.96 234.381 15.704 233.709 15.192C233.069 14.648 232.749 13.88 232.749 12.888C232.749 11.896 233.069 11.144 233.709 10.632C234.381 10.088 235.325 9.816 236.541 9.816C237.821 9.816 238.781 10.072 239.421 10.584C240.061 11.096 240.381 11.864 240.381 12.888C240.381 13.88 240.045 14.648 239.373 15.192C238.733 15.704 237.789 15.96 236.541 15.96ZM256.105 53.64C253.385 53.64 251.145 53.432 249.385 53.016C247.657 52.6 246.377 51.976 245.545 51.144C244.713 50.312 244.297 49.288 244.297 48.072C244.297 46.6 244.873 45.4 246.025 44.472C247.209 43.512 248.953 42.92 251.257 42.696V41.736C249.529 41.768 248.217 41.592 247.321 41.208C246.425 40.792 245.977 40.136 245.977 39.24C245.977 38.376 246.409 37.608 247.273 36.936C248.169 36.264 249.641 35.704 251.689 35.256V34.296C249.737 34.2 248.217 33.592 247.129 32.472C246.041 31.32 245.497 29.832 245.497 28.008C245.497 26.376 245.945 24.936 246.841 23.688C247.737 22.44 249.049 21.464 250.777 20.76C252.537 20.024 254.665 19.656 257.161 19.656H269.593V24.456L261.721 23.304V24.36C263.705 24.68 265.161 25.24 266.089 26.04C267.049 26.84 267.529 27.928 267.529 29.304C267.529 30.616 267.113 31.784 266.281 32.808C265.449 33.8 264.233 34.584 262.633 35.16C261.065 35.704 259.161 35.976 256.921 35.976C256.505 35.976 256.057 35.96 255.577 35.928C255.097 35.896 254.345 35.816 253.321 35.688C252.649 36.168 252.105 36.6 251.689 36.984C251.273 37.336 251.065 37.672 251.065 37.992C251.065 38.248 251.225 38.472 251.545 38.664C251.865 38.824 252.281 38.936 252.793 39C253.305 39.064 253.801 39.096 254.281 39.096H260.953C261.593 39.096 262.409 39.144 263.401 39.24C264.425 39.336 265.433 39.592 266.425 40.008C267.449 40.424 268.297 41.08 268.969 41.976C269.673 42.872 270.025 44.136 270.025 45.768C270.025 47.592 269.497 49.08 268.441 50.232C267.417 51.416 265.865 52.28 263.785 52.824C261.737 53.368 259.177 53.64 256.105 53.64ZM256.633 48.744C258.617 48.744 260.201 48.632 261.385 48.408C262.569 48.184 263.417 47.816 263.929 47.304C264.441 46.824 264.697 46.2 264.697 45.432C264.697 44.728 264.537 44.184 264.217 43.8C263.897 43.384 263.481 43.096 262.969 42.936C262.489 42.776 261.993 42.68 261.481 42.648C260.969 42.616 260.537 42.6 260.185 42.6H254.281C252.745 42.824 251.657 43.256 251.017 43.896C250.409 44.536 250.105 45.24 250.105 46.008C250.105 46.776 250.361 47.352 250.873 47.736C251.385 48.152 252.121 48.424 253.081 48.552C254.073 48.68 255.257 48.744 256.633 48.744ZM256.777 32.664C258.441 32.664 259.705 32.28 260.569 31.512C261.433 30.712 261.865 29.672 261.865 28.392C261.865 27.016 261.417 25.896 260.521 25.032C259.657 24.136 258.393 23.688 256.729 23.688C255.065 23.688 253.769 24.12 252.841 24.984C251.945 25.848 251.497 26.952 251.497 28.296C251.497 29.16 251.689 29.928 252.073 30.6C252.489 31.24 253.081 31.752 253.849 32.136C254.649 32.488 255.625 32.664 256.777 32.664ZM274.908 45V29.688V19.896H279.948L279.804 27.576H280.668C281.116 25.688 281.708 24.136 282.444 22.92C283.212 21.704 284.188 20.792 285.372 20.184C286.556 19.576 287.932 19.272 289.5 19.272C292.348 19.272 294.508 20.28 295.98 22.296C297.484 24.312 298.236 27.432 298.236 31.656V45H292.14V32.28C292.14 29.56 291.724 27.576 290.892 26.328C290.092 25.048 288.892 24.408 287.292 24.408C285.948 24.408 284.812 24.84 283.884 25.704C282.956 26.536 282.236 27.656 281.724 29.064C281.244 30.44 280.988 31.96 280.956 33.624V45H274.908ZM314.371 45.624C312.675 45.624 311.139 45.448 309.763 45.096C308.419 44.776 307.267 44.312 306.307 43.704C305.347 43.064 304.579 42.312 304.003 41.448C303.427 40.552 303.075 39.56 302.947 38.472L307.699 36.696C307.763 37.528 308.083 38.28 308.659 38.952C309.235 39.592 310.035 40.104 311.059 40.488C312.083 40.872 313.315 41.064 314.755 41.064C316.355 41.064 317.587 40.824 318.451 40.344C319.347 39.832 319.795 39.112 319.795 38.184C319.795 37.512 319.555 36.984 319.075 36.6C318.595 36.184 317.891 35.848 316.963 35.592C316.067 35.304 314.979 35.032 313.699 34.776C312.515 34.52 311.315 34.232 310.099 33.912C308.915 33.56 307.811 33.112 306.787 32.568C305.795 31.992 304.979 31.256 304.339 30.36C303.731 29.432 303.427 28.264 303.427 26.856C303.427 25.32 303.827 23.992 304.627 22.872C305.459 21.752 306.643 20.872 308.179 20.232C309.747 19.592 311.635 19.272 313.843 19.272C315.923 19.272 317.715 19.56 319.219 20.136C320.755 20.712 322.003 21.544 322.963 22.632C323.923 23.688 324.531 24.952 324.787 26.424L319.795 28.008C319.699 27.112 319.395 26.36 318.883 25.752C318.371 25.112 317.683 24.632 316.819 24.312C315.955 23.992 314.947 23.832 313.795 23.832C312.323 23.832 311.171 24.088 310.339 24.6C309.507 25.112 309.091 25.8 309.091 26.664C309.091 27.368 309.347 27.928 309.859 28.344C310.403 28.76 311.139 29.096 312.067 29.352C313.027 29.608 314.115 29.864 315.331 30.12C316.611 30.376 317.843 30.68 319.027 31.032C320.243 31.352 321.331 31.784 322.291 32.328C323.251 32.872 324.019 33.592 324.595 34.488C325.171 35.352 325.459 36.472 325.459 37.848C325.459 39.512 325.011 40.936 324.115 42.12C323.219 43.272 321.939 44.152 320.275 44.76C318.643 45.336 316.675 45.624 314.371 45.624Z" fill="#242423"/>
<path d="M332.697 45.576C331.385 45.576 330.393 45.288 329.721 44.712C329.049 44.136 328.713 43.24 328.713 42.024C328.713 40.776 329.049 39.864 329.721 39.288C330.393 38.712 331.385 38.424 332.697 38.424C334.073 38.424 335.097 38.712 335.769 39.288C336.473 39.864 336.825 40.776 336.825 42.024C336.825 44.392 335.449 45.576 332.697 45.576Z" fill="#F28564"/>
</g>
<defs>
<clipPath id="clip0_11_306">
<rect width="338" height="58" fill="white"/>
</clipPath>
</defs>
</svg>
